<svg class="animated" id="freepik_stories-reading-glasses" xmlns="http://www.w3.org/2000/svg" viewBox="0 0 500 500" version="1.1"><style>@keyframes zoomIn{0%{opacity:0;transform:scale(.5)}to{opacity:1;transform:scale(1)}}@keyframes slideUp{0%{opacity:0;transform:translateY(30px)}to{opacity:1;transform:inherit}}@keyframes floating{0%,to{opacity:1;transform:translateY(0)}50%{transform:translateY(-10px)}}@keyframes wind{0%{transform:rotate(0deg)}25%{transform:rotate(1deg)}75%{transform:rotate(-1deg)}}svg#freepik_stories-reading-glasses:not(.animated) .animable{opacity:0}</style><g id="freepik--background-simple--inject-1" class="animable animator-active" style="transform-origin:248.979px 240.687px;animation:1s 1 forwards ease-in zoomIn;animation-delay:0s"><path d="M249.5 95.18c82.32 37 7.59 103 55.12 139s176.76-5.61 127.5 87.75c-57.87 109.65-311.28 94.42-365.92-40.08S167.18 58.14 249.5 95.18z" style="transform-origin:248.979px 240.687px" id="elspxgopttm4" class="animable" fill="#407bff"/><path d="M249.5 95.18c82.32 37 7.59 103 55.12 139s176.76-5.61 127.5 87.75c-57.87 109.65-311.28 94.42-365.92-40.08S167.18 58.14 249.5 95.18z" style="transform-origin:248.979px 240.687px" class="animable" fill="#fff" opacity=".9" id="elxp6kdn1anys"/></g><g id="freepik--Shadow--inject-1" class="animable" style="transform-origin:250px 416.24px"><ellipse id="freepik--path--inject-1" cx="250" cy="416.24" rx="193.89" ry="11.32" style="transform-origin:250px 416.24px" class="animable" fill="#f5f5f5"/></g><g id="freepik--Lamp--inject-1" class="animable" style="transform-origin:124.852px 293.363px"><path d="M75.42 414.11a1.5 1.5 0 01-1.5-1.5V226.73A55.86 55.86 0 01172 190.12a1.5 1.5 0 01-2.27 2 52.85 52.85 0 00-92.78 34.64v185.85a1.5 1.5 0 01-1.53 1.5z" style="transform-origin:123.148px 292.473px" id="elurghsq22byg" class="animable" fill="#263238"/><path id="eljdj0qsqulrg" class="animable" style="transform-origin:86.14px 412.33px" d="M107.91 415.89H64.37l2.63-7.12h38.28l2.63 7.12z"/><path style="isolation:isolate;transform-origin:86.14px 412.33px" class="animable" fill="#fff" opacity=".2" d="M107.91 415.89H64.37l2.63-7.12h38.28l2.63 7.12z" id="el40ivbf3awpj"/><path style="isolation:isolate;transform-origin:94.04px 412.33px" class="animable" fill="#fff" opacity=".2" d="M107.91 415.89H80.17v-7.12h25.11l2.63 7.12z" id="el5q1lq9iz6ho"/><path d="M170.36 186.69h.53a12.94 12.94 0 0112.94 12.94v1.77h-26.42v-1.77a12.94 12.94 0 0112.95-12.94z" style="transform-origin:170.62px 194.045px" class="animable" fill="#263238" transform="rotate(-15.8)" id="elxyoks8pt7qn"/><path d="M184.92 196.08l.41 1.45-25.42 7.2-.41-1.45a13.21 13.21 0 019.12-16.28 13.85 13.85 0 012.89-.48 13.2 13.2 0 0113.41 9.59z" style="isolation:isolate;transform-origin:172.169px 195.616px" class="animable" fill="#fff" opacity=".2" id="elrxv0pynzqn"/><path d="M184.92 196.08l.41 1.45-16.24 4.6-.41-1.45c-1.72-6.06-.44-11.89 2.83-14.19a13.2 13.2 0 0113.41 9.59z" style="isolation:isolate;transform-origin:176.622px 194.301px" class="animable" fill="#fff" opacity=".2" id="elsnsjecbm6c"/></g><g id="freepik--Glasess--inject-1" class="animable" style="transform-origin:314.848px 249.3px"><path d="M283 271.45a7.79 7.79 0 01-2.24-2c-1.66-2.27-2.22-13.15-5-16-.49-.5-2.38-1.16-5.16-1.91-8.91-2.38-27-5.64-37.4-7.44l-1.24-.22V236l1 .29c9.3 2.6 28.38 8 38.88 11.64 3.95 1.36 6.67 2.45 7.22 3 2 2.09 4.61 14.24 5.65 19.3a1.16 1.16 0 01-1.71 1.22z" style="transform-origin:258.345px 253.8px" id="elfdue1m3hzaf" class="animable" fill="#263238"/><path d="M271.86 247.91l-1.27 3.59c-8.91-2.38-27-5.64-37.4-7.44l-.51-6.46a2.35 2.35 0 01.13-.95 3.34 3.34 0 01.17-.38c9.3 2.6 28.38 8.05 38.88 11.64z" style="transform-origin:252.267px 243.885px" class="animable" fill="#fff" opacity=".4" id="elmyrgwoaflm"/><path d="M232 236l-1.82-.51c-.34-.09.89-2.36.89-2.36l-4.85 1.74a1.47 1.47 0 00-1 1.43l.1 5.21a1.49 1.49 0 001.24 1.44l5.42.92z" style="transform-origin:228.61px 238.5px" id="elzj5v87wv6tk" class="animable" fill="#263238"/><path d="M231 233.1a3.14 3.14 0 01-1.58.88 22.41 22.41 0 00-3.83 1.59c-.38.32 0 5.74 0 6.26s4.64 1.15 4.64 1.15l-.12-7.52z" style="transform-origin:228.211px 238.04px" class="animable" fill="#fff" opacity=".1" id="el2n53bxaunov"/><path d="M230 234.29a39.83 39.83 0 00-4.11 1.49 12.87 12.87 0 000 2s.52-1.31 1-1 .24 1.21 1.14 1 1.37.87 1.37.87-.17-3.65.6-4.36z" style="transform-origin:227.926px 236.47px" class="animable" fill="#fff" opacity=".1" id="elygd7wg6cqp"/><path d="M398.83 250.94c-2.49-2.66-52.88-16.57-52.88-16.57s-5.2-1.58-7.61-2.12l-.78 10.21h7s48.18 8.1 50.95 11 3.32 13.75 5 16a8.12 8.12 0 002.05 1.91 1.25 1.25 0 001.89-1.31c-1.08-5.21-3.69-17.06-5.62-19.12z" style="transform-origin:371.018px 251.906px" id="elv751rrpa84m" class="animable" fill="#263238"/><path d="M279.27 239.59a27.56 27.56 0 01-.39 7.07c-.71 2.83-2.72 3.33-4.9 7.24s3.63-16.61 5.29-14.31z" style="transform-origin:276.421px 246.903px" id="elxo1nmyyv86" class="animable" fill="#263238"/><path d="M295.59 239.31a33.46 33.46 0 012.47 7.14c.44 2.86-1.38 3.36-2 7.3s-3.06-16.75-.47-14.44z" style="transform-origin:296.275px 246.69px" id="elutmy65nog8g" class="animable" fill="#263238"/><path d="M341.74 234.37a1.93 1.93 0 00-.46-1.1c-.25-.26-6.34-6.41-23.63-6.41-15.78 0-24.55 6-24.92 6.31-.06.05-.12.13-.18.19-1.88-1.19-6.48-3.2-12.44 0a1.08 1.08 0 00-.18-.23c-.31-.26-7.75-6.31-23.52-6.31-17.3 0-24.73 6.15-25 6.41a2.5 2.5 0 00-.71 1.1 2.84 2.84 0 00-.13 1l1.73 23.1c.59 7.86 5.21 13.34 11.24 13.34h10.9c8 0 15.72-6.85 19.27-17.07 0 0 5.89-14.78 6.12-14.92 6.63-4.16 11.34-.24 11.53-.07s2.91 15 2.91 15c1.3 10.22 7.54 17.07 15.51 17.07h10.9c6 0 11.87-5.48 14.18-13.34l6.82-23.1a2.65 2.65 0 00.06-.97zm-46.42 2.07a1.87 1.87 0 01.86-1.09 48 48 0 0121-4.46c11.29 0 17.51 2.73 20.25 4.41a1.41 1.41 0 01.6 1.06 2.22 2.22 0 01-.08 1l-6 20.19c-1.78 6.05-6.29 10.3-10.93 10.3h-10.9c-6.64 0-11.88-5.77-13-14.26l-2-16.06a2.17 2.17 0 01.2-1.09zm-61.43-.08a1.91 1.91 0 01.85-1.06c3.11-1.68 9.93-4.41 21.23-4.41 10.33 0 16.93 2.75 20 4.46a1.42 1.42 0 01.64 1.09 2.21 2.21 0 01-.11 1.07l-5.5 16.05c-2.95 8.5-9.47 14.27-16.11 14.27h-10.9c-4.64 0-8.22-4.25-8.67-10.3l-1.51-20.19a2.67 2.67 0 01.08-.98z" style="transform-origin:286.163px 249.3px" id="el3mo1u4kj7lf" class="animable" fill="#263238"/><path d="M340.65 234.72a1.82 1.82 0 00-.47-1.07c-.25-.26-6.35-6.25-23.64-6.25-15.78 0-24.53 5.89-24.9 6.14a1.62 1.62 0 00-.18.19c-1.89-1.15-6.49-3.12-12.44 0l-.18-.22c-.31-.25-7.77-6.14-23.54-6.14-17.3 0-24.72 6-25 6.25a2.35 2.35 0 00-.71 1.07 2.64 2.64 0 00-.12 1l1.79 22.51c.61 7.66 5.25 13 11.28 13h10.9c8 0 15.7-6.67 19.22-16.63 0 0 5.85-14.41 6.07-14.54 6.63-4.05 11.35-.23 11.54-.06s2.95 14.6 2.95 14.6c1.33 10 7.58 16.63 15.56 16.63h10.9c6 0 11.85-5.34 14.14-13l6.75-22.51a2.44 2.44 0 00.08-.97zm-46.42 2a1.86 1.86 0 01.87-1.06 48.77 48.77 0 0121-4.35c11.29 0 17.52 2.67 20.26 4.3a1.39 1.39 0 01.61 1 2.28 2.28 0 01-.08 1L331 257.28c-1.76 5.89-6.26 10-10.91 10h-10.9c-6.64 0-11.89-5.62-13-13.89l-2.08-15.64a2.19 2.19 0 01.12-1.02zm-61.42-.08a1.89 1.89 0 01.84-1c3.11-1.63 9.92-4.3 21.22-4.3 10.33 0 16.94 2.68 20 4.35a1.37 1.37 0 01.65 1.06 2.14 2.14 0 01-.11 1.05l-5.53 15.63c-2.93 8.28-9.43 13.9-16.07 13.9H243c-4.64 0-8.23-4.14-8.7-10l-1.57-19.67a2.57 2.57 0 01.08-1.01z" style="transform-origin:285.065px 249.285px" id="elvjew3d6elyi" class="animable" fill="#263238"/><path d="M279.6 238.64s.73-3 .42-3.85 2.49-1.9 4.15-1.95a6.77 6.77 0 012.92.24c.26.22-1.3-.06-2.33.83s.07 1.61-1.16 2.42-.57.91-.89 1.16a28.68 28.68 0 01-3.11 1.15z" style="transform-origin:283.359px 235.709px" class="animable" fill="#fff" opacity=".1" id="elcevpjm1wmxp"/><path d="M275.14 231.9s-6.47-4.12-20.87-4.12-22.4 5.24-23.61 6.59-.54 4.07.33 14.39 1.18 15.75 5.72 19.07c0 0-3.29-5.33-3.07-7.36s-.88-7.66-1.26-14.3-1.19-10.55 0-11.31 7.25-4.81 18.37-5.22 17.06 2.2 18.22 1.68 4.08.72 4.77.72a8.34 8.34 0 001.4-.14z" style="transform-origin:252.571px 247.805px" class="animable" fill="#fff" opacity=".1" id="elqqvh9ke5ve"/><g style="transform-origin:284.869px 249.356px" class="animable" opacity=".4" id="ela9lxel5bswb"><path d="M253.79 268.08h-10.9c-4.79 0-8.45-4.33-8.92-10.53l-1.51-20.19a3.06 3.06 0 01.14-1.08 2.17 2.17 0 011-1.2c3.08-1.66 9.94-4.44 21.35-4.44 10.48 0 17.12 2.82 20.15 4.49a1.63 1.63 0 01.77 1.27 2.44 2.44 0 01-.12 1.19l-5.58 16c-3.03 8.69-9.6 14.49-16.38 14.49zm1.13-36.94c-11.3 0-18.08 2.74-21.11 4.38a1.57 1.57 0 00-.73.93 2.14 2.14 0 00-.12.87l1.51 20.19c.44 5.93 3.91 10.07 8.42 10.07h10.9c6.56 0 12.94-5.67 15.87-14.11l5.58-16a2 2 0 00.1-1 1.19 1.19 0 00-.51-.91c-2.99-1.64-9.55-4.42-19.91-4.42z" style="transform-origin:254.176px 249.36px" id="el6wko3p4530t" class="animable" fill="#fff"/><path d="M320 268.08h-10.9c-6.79 0-12.1-5.82-13.22-14.48l-2-16.06a2.45 2.45 0 01.14-1.19 2.08 2.08 0 011-1.22 48 48 0 0121.14-4.49c11.4 0 17.66 2.78 20.38 4.45a1.66 1.66 0 01.72 1.24 2.52 2.52 0 01-.09 1.08l-6 20.19c-1.78 6.17-6.37 10.48-11.17 10.48zm-3.88-36.94a47.44 47.44 0 00-20.91 4.44 1.58 1.58 0 00-.75.94 2 2 0 00-.12 1l2 16.06c1.08 8.4 6.19 14 12.72 14H320c4.54 0 8.94-4.16 10.69-10.12l6-20.19a2 2 0 00.07-.87 1.17 1.17 0 00-.48-.88c-2.67-1.64-8.84-4.38-20.12-4.38z" style="transform-origin:315.571px 249.356px" id="elnc1pw805rw" class="animable" fill="#fff"/></g><path d="M292 234.11c-.61.55-.34 1.23-.29 2.68a12.15 12.15 0 01-.38 3s2.94 16.46 3.42 17.77.74.76.91.55 1.16 1.37 1.16 1.37a70.49 70.49 0 01-2.6-13.68c-.9-8.6-1.25-9.82-.67-10.66s7.78-4.06 13.88-4.75a82.87 82.87 0 0118.07 0c4.29.62 4.44-.77 5.1-.49a10.56 10.56 0 002.52.35s-11.71-3.64-24-2-17.12 5.86-17.12 5.86z" style="transform-origin:312.225px 243.653px" class="animable" fill="#fff" opacity=".1" id="el7kr7f55baen"/><path d="M310.64 236.93c1.92-3.58-.32-2.07-1.82.27s-7.07 21.46-6.11 25.86a56.86 56.86 0 00-4-6.74c-.46-.51-.94-3.16-1.36-6.35-.38-2.89-.71-6.22-.93-8.83-.18-2.24-.29-3.94-.26-4.36.05-1.43 8.11-4.53 19.46-4.53 0 0-6.82 14.09-8.71 20.08-.03 0 1.82-11.83 3.73-15.4z" style="transform-origin:305.888px 247.655px" id="elbxhpcqy7vc" class="animable" fill="#fff"/><path d="M297.32 250c-.38-2.89-.71-6.22-.93-8.83a26.22 26.22 0 011.67 5.31 5.12 5.12 0 01-.74 3.52z" style="transform-origin:297.254px 245.585px" class="animable" opacity=".2" id="el6keh7ue3d3n"/><path d="M345.41 234.51s-4-1.21-6.25-1.75v.08c-2.32-1.7-9-5.44-22.67-5.44-15.78 0-24.53 5.89-24.9 6.14a1.62 1.62 0 00-.18.19c-1.89-1.15-6.49-3.12-12.44 0-.06-.07-.11-.15-.18-.22-.31-.25-7.77-6.14-23.54-6.14-17.3 0-24.72 6-25 6.25a2.35 2.35 0 00-.71 1.07 2.64 2.64 0 00-.12 1l1.79 22.51c.61 7.66 5.25 13 11.28 13h10.9c8 0 15.7-6.67 19.22-16.63 0 0 5.85-14.41 6.07-14.54 6.63-4.05 11.35-.23 11.54-.06s2.95 14.6 2.95 14.6c1.33 10 7.58 16.63 15.56 16.63h10.9c6 0 11.85-5.34 14.14-13l5.73-19.1-.37 2.45h5s.66-.12.78-.48 1-5 1-5.56a1.64 1.64 0 00-.5-1zm-70 3.27l-5.53 15.63c-2.93 8.28-9.43 13.9-16.07 13.9H243c-4.64 0-8.23-4.14-8.7-10l-1.57-19.67a2.57 2.57 0 01.13-1 1.89 1.89 0 01.84-1c3.11-1.63 9.92-4.3 21.22-4.3 10.33 0 16.94 2.68 20 4.35a1.37 1.37 0 01.65 1.06 2.14 2.14 0 01-.12 1.03zm61.45-.17L331 257.28c-1.76 5.89-6.26 10-10.91 10h-10.9c-6.64 0-11.89-5.62-13-13.89l-2.08-15.64a2.19 2.19 0 01.12-1.05 1.86 1.86 0 01.87-1.06 48.77 48.77 0 0121-4.35c11.29 0 17.52 2.67 20.26 4.3a1.39 1.39 0 01.61 1 2.28 2.28 0 01-.07 1.02z" style="transform-origin:287.662px 249.285px" class="animable" fill="#fff" opacity=".1" id="ell9iecro5e"/><path d="M340 233.63c.69.38.83.63.64 1.8s-.64 3.15-.64 3.15.31-1.35 1.49-1.28a8.14 8.14 0 003.46-.52c.21-.27.52-1.47.34-1.58s-3-1.15-3.8-1.36a6.55 6.55 0 00-1.49-.21z" style="transform-origin:342.672px 236.105px" class="animable" fill="#fff" opacity=".1" id="el5xg8bm1m01j"/><path d="M254.68 232.25s-2.37 4.11-5 8.81c-1 1.78-2 3.65-3 5.41-1.74 3.18-3.2 6-3.7 7.3.07-.39.79-3.8 1.72-7.65.5-2 1.05-4.16 1.62-6a37.35 37.35 0 011.3-3.8c-.08.12-.8 1.05-2 2.36a5.11 5.11 0 00-.58 1.08c-.57 1.27-1.41 3.49-2.31 6-2.39 6.7-5.32 15.68-5.32 15.68a3.88 3.88 0 01-1.26-2.67s-.64-8.06-1.1-14.37c-.27-3.83-.48-7-.43-7.41a.49.49 0 01.1-.21c1.09-1.23 9.14-4.4 19.96-4.53z" style="transform-origin:244.646px 246.845px" id="el3g8jxikdret" class="animable" fill="#fff"/><path d="M245.11 239.72c-.57 1.27-1.41 3.49-2.31 6-2.75-.49-5.35-1-7.68-1.36-.27-3.83-.48-7-.43-7.41a.49.49 0 01.1-.21c2.9.85 6.48 1.87 10.32 2.98z" style="transform-origin:239.896px 241.23px" class="animable" opacity=".2" id="elxytxst2s7re"/><path d="M249.7 241.06c-1 1.78-2 3.65-3 5.41l-2-.35c.5-2 1.05-4.16 1.62-6z" style="transform-origin:247.2px 243.295px" class="animable" opacity=".2" id="el6974j652t04"/></g><g id="freepik--Books--inject-1" class="animable" style="transform-origin:326.24px 343.735px"><path style="transform-origin:264.69px 343.865px" class="animable" fill="#407bff" transform="rotate(180)" d="M234.57 330.8h60.24v26.13h-60.24z" id="el2x1c3chvnpf"/><path style="transform-origin:264.69px 343.865px" class="animable" fill="#fff" opacity=".8" transform="rotate(180)" d="M234.57 330.8h60.24v26.13h-60.24z" id="elpyd3aatrq6"/><path style="isolation:isolate;transform-origin:262.275px 332.075px" class="animable" opacity=".2" d="M289.98 333.35h-55.41v-2.55h55.36l.05 2.55z" id="elg7szxtuffl9"/><path style="isolation:isolate;transform-origin:264.995px 336.645px" class="animable" opacity=".2" d="M289.99 335.58L240 336.65l49.99 1.06v-2.13z" id="el0j7t8v8xm1l"/><path style="isolation:isolate;transform-origin:263.52px 346.065px" class="animable" opacity=".2" d="M289.99 345.24l-52.94.9 52.94.75v-1.65z" id="elz7f9qkut08t"/><path style="isolation:isolate;transform-origin:263.755px 351.955px" class="animable" opacity=".2" d="M289.99 350.89l-52.47 1.06 52.47 1.07v-2.13z" id="elu9pspfbkq7n"/><path style="isolation:isolate;transform-origin:259.95px 340.6px" class="animable" opacity=".2" d="M234.57 339.3l50.76 1.54-50.76 1.06v-2.6z" id="elixg91409bm7"/><path d="M369 343.73a11.81 11.81 0 01-11.84 11.82H231.79a.88.88 0 00-.87.88v.93a.87.87 0 00.87.88h126a14.55 14.55 0 0014.53-14.64 14.77 14.77 0 00-14.9-14.41H231.79a.87.87 0 00-.87.87v.94a.87.87 0 00.87.88h125A12.17 12.17 0 01369 343.73z" style="transform-origin:301.62px 343.715px" id="el74i07lsnrtw" class="animable" fill="#263238"/><path d="M369 343.73a11.81 11.81 0 01-11.84 11.82H231.79a.88.88 0 00-.87.88v.93a.87.87 0 00.87.88h126a14.55 14.55 0 0014.53-14.64 14.77 14.77 0 00-14.9-14.41H231.79a.87.87 0 00-.87.87v.94a.87.87 0 00.87.88h125A12.17 12.17 0 01369 343.73z" style="transform-origin:301.62px 343.715px" class="animable" fill="#fff" opacity=".4" id="elu4vl9u3ehf"/><path d="M414.75 343.88A13.08 13.08 0 01401.67 357H290v-26.2h111.67a13.08 13.08 0 0113.08 13.08z" style="transform-origin:352.375px 343.9px" id="elnsydw9oxcca" class="animable" fill="#407bff"/><path d="M290 330.8V357h111.67a13.09 13.09 0 000-26.17z" style="transform-origin:352.199px 343.9px" class="animable" fill="#fff" opacity=".7" id="elwe286oh1r7r"/><path style="isolation:isolate;transform-origin:345.65px 336.645px" class="animable" opacity=".2" d="M289.99 337.71v-2.13l111.32.9-111.32 1.23z" id="elmxca7j0s71"/><path style="isolation:isolate;transform-origin:314.975px 346.135px" class="animable" opacity=".2" d="M289.99 346.89v-1.65l49.97 1.79-49.97-.14z" id="elst74t57bmp"/><path style="isolation:isolate;transform-origin:330.275px 351.955px" class="animable" opacity=".2" d="M289.99 353.02v-2.13l80.57 1.23-80.57.9z" id="el7ybgl5zvpqx"/><path d="M401.85 333.35a8.71 8.71 0 015.82 2.24 22 22 0 00-1.64 4.24l-111.68.88 111.42.28a14.08 14.08 0 00.1 5.95l-75.21 1.64 75.92.88a26.76 26.76 0 002.52 5.19 13.08 13.08 0 00-7.43-23.85H290v2.55z" style="isolation:isolate;transform-origin:352.379px 342.725px" class="animable" opacity=".2" id="eli9xq7t4cfj"/><path d="M413.72 343.73a11.83 11.83 0 01-11.85 11.82H288.11a.88.88 0 00-.87.88v.93a.87.87 0 00.87.88h114.42a14.53 14.53 0 0014.52-14.64 14.77 14.77 0 00-14.9-14.41h-114a.87.87 0 00-.87.87v.94a.87.87 0 00.87.88h113.38a12.17 12.17 0 0112.19 11.85z" style="transform-origin:352.145px 343.715px" id="elxfo3bdaf8e" class="animable" fill="#263238"/><path style="transform-origin:397.57px 345.645px" id="el68yp41m9zhx" class="animable" fill="#263238" d="M401.31 340.4v10.49l-3.8-3.79-3.68 3.68V340.4h7.48z"/><path style="transform-origin:324.955px 401.535px" id="eltwthflos8mh" class="animable" fill="#407bff" d="M243.66 388.45h162.59v26.17H243.66z"/><path style="transform-origin:324.955px 401.535px" class="animable" fill="#fff" opacity=".7" d="M243.66 388.45h162.59v26.17H243.66z" id="elbm2ln2wy9ln"/><path style="isolation:isolate;transform-origin:350.595px 394.305px" class="animable" opacity=".2" d="M406.26 395.37v-2.13l-111.33.89 111.33 1.24z" id="elxuxxgemf8ek"/><path style="isolation:isolate;transform-origin:381.27px 403.79px" class="animable" opacity=".2" d="M406.26 404.54v-1.64l-49.98 1.78 49.98-.14z" id="el27st6jtcz6g"/><path style="isolation:isolate;transform-origin:365.97px 409.61px" class="animable" opacity=".2" d="M406.26 410.67v-2.12l-80.58 1.23 80.58.89z" id="elwaeyr8ueqb"/><path d="M280 388.45L277.66 408l2.78-3a23.87 23.87 0 005.11 9.63 28.41 28.41 0 004.11-7.51l75.93-.87-75.22-1.64a15.16 15.16 0 00.37-3.23 14.52 14.52 0 00-.27-2.73l111.43-.28-111.69-.87a20.34 20.34 0 00-1.64-4.24 8.71 8.71 0 015.82-2.24h111.87v-2.56z" style="isolation:isolate;transform-origin:341.96px 401.54px" class="animable" opacity=".2" id="elzokci5axcfb"/><path d="M282.52 401.38a11.85 11.85 0 0011.85 11.83h113.76a.87.87 0 01.88.87v.92a.87.87 0 01-.88.87h-177a14.51 14.51 0 01-14.52-14.63 14.78 14.78 0 0114.9-14.42h176.62a.87.87 0 01.88.87v.94a.87.87 0 01-.88.87H294.72a12.19 12.19 0 00-12.2 11.88z" style="transform-origin:312.81px 401.345px" id="elsogoqvshkd" class="animable" fill="#407bff"/><path d="M282.52 401.38a11.85 11.85 0 0011.85 11.83h113.76a.87.87 0 01.88.87v.92a.87.87 0 01-.88.87h-177a14.51 14.51 0 01-14.52-14.63 14.78 14.78 0 0114.9-14.42h176.62a.87.87 0 01.88.87v.94a.87.87 0 01-.88.87H294.72a12.19 12.19 0 00-12.2 11.88z" style="isolation:isolate;transform-origin:312.81px 401.345px" class="animable" opacity=".4" id="el7ntvl6t5vfr"/><path d="M282.52 401.38a11.85 11.85 0 0011.85 11.83h113.76a.87.87 0 01.88.87v.92a.87.87 0 01-.88.87H293.72a14.53 14.53 0 01-14.53-14.63 14.78 14.78 0 0114.9-14.42h114a.87.87 0 01.88.87v.94a.87.87 0 01-.88.87H294.72a12.19 12.19 0 00-12.2 11.88z" style="transform-origin:344.1px 401.345px" id="el3r2375j9kcs" class="animable" fill="#407bff"/><path style="transform-origin:298.67px 403.305px" id="elgfdghvpgcp" class="animable" fill="#263238" d="M294.93 398.06v10.49l3.8-3.8 3.68 3.68v-10.37h-7.48z"/><path d="M282.52 401.38a11.85 11.85 0 0011.85 11.83h113.76a.87.87 0 01.88.87v.92a.87.87 0 01-.88.87H293.72a14.53 14.53 0 01-14.53-14.63 14.78 14.78 0 0114.9-14.42h114a.87.87 0 01.88.87v.94a.87.87 0 01-.88.87H294.72a12.19 12.19 0 00-12.2 11.88z" style="transform-origin:344.1px 401.345px" class="animable" fill="#fff" opacity=".1" id="eloisx62thwak"/><path d="M273.93 411.64a14.54 14.54 0 0010.28 4.25h-4.83a14.51 14.51 0 01-14.52-14.64 14.76 14.76 0 0114.9-14.41h4.82a14.77 14.77 0 00-14.9 14.41 14.5 14.5 0 004.25 10.39z" style="transform-origin:274.72px 401.365px" class="animable" fill="#fff" opacity=".1" id="els48x95lzh1a"/><path d="M264.28 411.64a14.56 14.56 0 0010.28 4.25h-4.83a14.51 14.51 0 01-14.52-14.64 14.77 14.77 0 0114.9-14.41h4.82A14.77 14.77 0 00260 401.25a14.5 14.5 0 004.28 10.39z" style="transform-origin:265.07px 401.365px" class="animable" fill="#fff" opacity=".1" id="eld9eco5elwvd"/><path style="transform-origin:337.705px 372.705px" id="el21pqgw4olnn" class="animable" fill="#407bff" d="M256.41 359.62H419v26.17H256.41z"/><path style="transform-origin:337.705px 372.705px" class="animable" fill="#fff" opacity=".8" d="M256.41 359.62H419v26.17H256.41z" id="elcg4s96kn1nu"/><path style="isolation:isolate;transform-origin:363.34px 365.475px" class="animable" opacity=".2" d="M419 366.54v-2.13l-111.32.89L419 366.54z" id="elxwji1451g6o"/><path style="isolation:isolate;transform-origin:394.01px 374.965px" class="animable" opacity=".2" d="M419 375.71v-1.64l-49.98 1.79 49.98-.15z" id="eleyqq8xr9mng"/><path style="isolation:isolate;transform-origin:378.71px 380.78px" class="animable" opacity=".2" d="M419 381.84v-2.12l-80.58 1.23 80.58.89z" id="elxiefq00265"/><path d="M292.76 359.62l-2.36 19.51 2.78-3a24 24 0 005.12 9.63 28.59 28.59 0 004.1-7.5l75.93-.88-75.22-1.64a14.32 14.32 0 00.11-5.95l111.42-.28-111.64-.85a21.76 21.76 0 00-1.64-4.24 8.68 8.68 0 015.82-2.24H419v-2.56z" style="isolation:isolate;transform-origin:354.7px 372.69px" class="animable" opacity=".2" id="elz7en3pqyaq"/><path d="M295.27 372.55a11.85 11.85 0 0011.84 11.83h113.77a.87.87 0 01.87.87v.94a.87.87 0 01-.87.87h-168a14.53 14.53 0 01-14.53-14.63A14.78 14.78 0 01253.2 358h167.68a.87.87 0 01.87.88v.93a.87.87 0 01-.87.87H307.46c-6.52.01-12.2 5.32-12.19 11.87z" style="transform-origin:330.05px 372.53px" id="elwjkdauf1fus" class="animable" fill="#263238"/><path d="M295.27 372.55a11.85 11.85 0 0011.84 11.83h113.77a.87.87 0 01.87.87v.94a.87.87 0 01-.87.87h-168a14.53 14.53 0 01-14.53-14.63A14.78 14.78 0 01253.2 358h167.68a.87.87 0 01.87.88v.93a.87.87 0 01-.87.87H307.46c-6.52.01-12.2 5.32-12.19 11.87z" style="transform-origin:330.05px 372.53px" class="animable" fill="#fff" opacity=".4" id="eldzpdz8obtj"/><path d="M295.27 372.55a11.85 11.85 0 0011.84 11.83h113.77a.87.87 0 01.87.87v.94a.87.87 0 01-.87.87H306.46a14.53 14.53 0 01-14.53-14.63 14.78 14.78 0 0114.9-14.43h114.05a.87.87 0 01.87.88v.93a.87.87 0 01-.87.87H307.46c-6.52.01-12.2 5.32-12.19 11.87z" style="transform-origin:356.84px 372.53px" id="elbg7qwvu12ll" class="animable" fill="#263238"/><path style="transform-origin:320.43px 370.75px" id="el4jzyjayckfk" class="animable" fill="#407bff" d="M316.69 365.5V376l3.8-3.8 3.68 3.68V365.5h-7.48z"/><path d="M295.27 372.55a11.85 11.85 0 0011.84 11.83h113.77a.87.87 0 01.87.87v.94a.87.87 0 01-.87.87H306.46a14.53 14.53 0 01-14.53-14.63 14.78 14.78 0 0114.9-14.43h114.05a.87.87 0 01.87.88v.93a.87.87 0 01-.87.87H307.46c-6.52.01-12.2 5.32-12.19 11.87z" style="transform-origin:356.84px 372.53px" class="animable" fill="#fff" opacity=".6" id="eljlhwn2xw0y"/><path d="M286.66 365.71h-37.13a8.51 8.51 0 000 13h37.13c-2.4-3.28-2.4-9.71 0-13z" style="isolation:isolate;transform-origin:266.586px 372.21px" class="animable" opacity=".2" id="el6yruvtso4se"/><path style="transform-origin:374.34px 286.205px" id="ell1f4dnmz81" class="animable" fill="#407bff" d="M344.22 273.14h60.24v26.13h-60.24z"/><path style="transform-origin:374.34px 286.205px" class="animable" fill="#fff" opacity=".7" d="M344.22 273.14h60.24v26.13h-60.24z" id="elizdixqbbeh9"/><path style="isolation:isolate;transform-origin:376.755px 274.42px" class="animable" opacity=".2" d="M349.05 275.7h55.41v-2.56h-55.35l-.06 2.56z" id="elxd3yam3kn3"/><path style="isolation:isolate;transform-origin:374.045px 278.995px" class="animable" opacity=".2" d="M349.05 277.93l49.99 1.06-49.99 1.07v-2.13z" id="elxckm7seoej"/><path style="isolation:isolate;transform-origin:375.52px 288.41px" class="animable" opacity=".2" d="M349.05 287.59l52.94.89-52.94.75v-1.64z" id="elrxxykkdn8u"/><path style="isolation:isolate;transform-origin:375.28px 294.3px" class="animable" opacity=".2" d="M349.05 293.24l52.46 1.06-52.46 1.06v-2.12z" id="ellt0rmj3kugi"/><path style="isolation:isolate;transform-origin:379.085px 282.945px" class="animable" opacity=".2" d="M404.46 281.65l-50.75 1.53 50.75 1.06v-2.59z" id="elymizthbnlas"/><path d="M270 286.07a11.85 11.85 0 0011.84 11.83h125.4a.87.87 0 01.87.87v.94a.87.87 0 01-.87.87h-126A14.51 14.51 0 01266.68 286a14.77 14.77 0 0114.89-14.42h125.67a.87.87 0 01.87.87v.94a.87.87 0 01-.87.87h-125c-6.56-.05-12.24 5.29-12.24 11.81z" style="transform-origin:337.395px 286.08px" id="elrfamoyyii78" class="animable" fill="#407bff"/><path d="M270 286.07a11.85 11.85 0 0011.84 11.83h125.4a.87.87 0 01.87.87v.94a.87.87 0 01-.87.87h-126A14.51 14.51 0 01266.68 286a14.77 14.77 0 0114.89-14.42h125.67a.87.87 0 01.87.87v.94a.87.87 0 01-.87.87h-125c-6.56-.05-12.24 5.29-12.24 11.81z" style="transform-origin:337.395px 286.08px" class="animable" fill="#fff" opacity=".4" id="elkkt6leshmag"/><path d="M224.28 286.23a13.09 13.09 0 0013.09 13.08h111.68v-26.17H237.37a13.09 13.09 0 00-13.09 13.09z" style="transform-origin:286.665px 286.225px" id="el3ts59a1gsl1" class="animable" fill="#407bff"/><path d="M349.05 273.14v26.17H237.36a13.09 13.09 0 010-26.17z" style="transform-origin:286.841px 286.225px" class="animable" fill="#fff" opacity=".5" id="el4bwilu9mhtd"/><path style="isolation:isolate;transform-origin:293.385px 278.995px" class="animable" opacity=".2" d="M349.05 280.06v-2.13l-111.33.89 111.33 1.24z" id="elz3o5c9h5s1c"/><path style="isolation:isolate;transform-origin:324.06px 288.485px" class="animable" opacity=".2" d="M349.05 289.23v-1.64l-49.98 1.79 49.98-.15z" id="elpjvyw30cnlg"/><path style="isolation:isolate;transform-origin:308.76px 294.3px" class="animable" opacity=".2" d="M349.05 295.36v-2.12l-80.58 1.23 80.58.89z" id="el65xkvx5tjve"/><path d="M237.18 275.7a8.77 8.77 0 00-5.82 2.23 21.25 21.25 0 011.65 4.25l111.68.87-111.42.28a15.41 15.41 0 01.27 2.73 14.93 14.93 0 01-.38 3.22l75.22 1.65-75.93.88a26.47 26.47 0 01-2.52 5.19 13.09 13.09 0 017.43-23.86h111.69v2.56z" style="isolation:isolate;transform-origin:286.665px 285.07px" class="animable" opacity=".2" id="elwj7xi0uwqbq"/><path d="M225.32 286.07a11.83 11.83 0 0011.84 11.83h113.77a.87.87 0 01.87.87v.94a.87.87 0 01-.87.87H236.51A14.53 14.53 0 01222 286a14.78 14.78 0 0114.9-14.42h114.03a.87.87 0 01.87.87v.94a.87.87 0 01-.87.87H237.51a12.17 12.17 0 00-12.19 11.81z" style="transform-origin:286.9px 286.08px" id="elrfsppccyvi" class="animable" fill="#407bff"/><path style="transform-origin:241.46px 287.995px" id="elz35udg26v4a" class="animable" fill="#263238" d="M237.72 282.75v10.49l3.8-3.8 3.68 3.68v-10.37h-7.48z"/><path style="transform-origin:351.775px 315.055px" id="el5brmc3qbmd2" class="animable" fill="#407bff" d="M270.48 301.97h162.59v26.17H270.48z"/><path style="transform-origin:351.775px 315.055px" class="animable" fill="#fff" opacity=".7" d="M270.48 301.97h162.59v26.17H270.48z" id="el72uy4dqc4bf"/><path style="isolation:isolate;transform-origin:377.41px 307.815px" class="animable" opacity=".2" d="M433.07 308.88v-2.13l-111.32.9 111.32 1.23z" id="ellplrsywmg4i"/><path style="isolation:isolate;transform-origin:408.085px 317.31px" class="animable" opacity=".2" d="M433.07 318.06v-1.64l-49.97 1.78 49.97-.14z" id="elpqzjfeit7ij"/><path style="isolation:isolate;transform-origin:392.785px 323.13px" class="animable" opacity=".2" d="M433.07 324.19v-2.12l-80.57 1.23 80.57.89z" id="el8cxdw365qq"/><path d="M306.83 302l-2.36 19.51 2.78-3a24 24 0 005.12 9.63 28.76 28.76 0 004.1-7.51l75.94-.87-75.22-1.64a15.93 15.93 0 00.37-3.24 15.2 15.2 0 00-.27-2.72l111.42-.28L317 311a21.87 21.87 0 00-1.64-4.25 8.7 8.7 0 015.82-2.23h111.89V302z" style="isolation:isolate;transform-origin:368.77px 315.07px" class="animable" opacity=".2" id="elaewjrgvfh9"/><path d="M309.34 314.9a11.85 11.85 0 0011.84 11.83H435a.87.87 0 01.87.87v.94a.87.87 0 01-.87.87H258a14.53 14.53 0 01-14.52-14.64 14.75 14.75 0 0114.89-14.41H435a.87.87 0 01.87.87v.94a.87.87 0 01-.87.87H321.53a12.17 12.17 0 00-12.19 11.86z" style="transform-origin:339.675px 314.885px" id="eljst2xgslox" class="animable" fill="#263238"/><path d="M309.34 314.9a11.85 11.85 0 0011.84 11.83H435a.87.87 0 01.87.87v.94a.87.87 0 01-.87.87H258a14.53 14.53 0 01-14.52-14.64 14.75 14.75 0 0114.89-14.41H435a.87.87 0 01.87.87v.94a.87.87 0 01-.87.87H321.53a12.17 12.17 0 00-12.19 11.86z" style="transform-origin:339.675px 314.885px" class="animable" fill="#fff" opacity=".2" id="elau2ywjf4nne"/><path d="M309.34 314.9a11.85 11.85 0 0011.84 11.83H435a.87.87 0 01.87.87v.94a.87.87 0 01-.87.87H320.53A14.53 14.53 0 01306 314.77a14.76 14.76 0 0114.89-14.41H435a.87.87 0 01.87.87v.94a.87.87 0 01-.87.87H321.53a12.17 12.17 0 00-12.19 11.86z" style="transform-origin:370.935px 314.885px" id="el6dvztign74h" class="animable" fill="#263238"/><path style="transform-origin:325.49px 316.825px" id="elt9v9lv1j8x" class="animable" fill="#407bff" d="M321.75 311.58v10.49l3.8-3.8 3.68 3.68v-10.37h-7.48z"/><path d="M309.34 314.9a11.85 11.85 0 0011.84 11.83H435a.87.87 0 01.87.87v.94a.87.87 0 01-.87.87H320.53A14.53 14.53 0 01306 314.77a14.76 14.76 0 0114.89-14.41H435a.87.87 0 01.87.87v.94a.87.87 0 01-.87.87H321.53a12.17 12.17 0 00-12.19 11.86z" style="transform-origin:370.935px 314.885px" class="animable" fill="#fff" opacity=".4" id="elzdr5hkjx2p"/><path d="M267 325.15a14.5 14.5 0 0010.28 4.26h-9.65a14.53 14.53 0 01-14.52-14.64A14.75 14.75 0 01268 300.36h9.64a14.76 14.76 0 00-14.89 14.41 14.47 14.47 0 004.25 10.38z" style="transform-origin:265.375px 314.885px" class="animable" fill="#fff" opacity=".2" id="elibi7y9b00g8"/></g><g id="freepik--speech-bubble--inject-1" class="animable" style="transform-origin:134.89px 233.235px;animation:.5s 1 forwards linear slideUp,3s Infinite linear floating;animation-delay:0s,.5s"><path d="M125.1 216.41h19.58a6 6 0 016 6v17a6 6 0 01-6 6h-.89l.93 4.65-5-4.65H125.1a6 6 0 01-6-6v-17a6 6 0 016-6z" style="transform-origin:134.89px 233.235px;animation:.5s 1 forwards linear slideUp;animation-delay:0s" id="el217liajstrq" class="animable" fill="#407bff"/></g><g id="freepik--Character--inject-1" class="animable" style="transform-origin:184.441px 326.654px;animation:3s Infinite linear wind;animation-delay:0s"><rect x="193.93" y="330.72" width="53.44" height="79.74" rx="7.04" style="transform-origin:220.65px 370.59px" id="elaxpkduyi3l" class="animable" fill="#407bff"/><rect x="193.93" y="330.72" width="53.44" height="79.74" rx="7.04" style="isolation:isolate;transform-origin:220.65px 370.59px" class="animable" fill="#fff" opacity=".5" id="el2oltcyu7f1s"/><path d="M236.41 410.46h-35.7a6.78 6.78 0 01-6.78-6.79V337.5a6.77 6.77 0 016.78-6.78h35.7a6.78 6.78 0 00-6.78 6.78v66.17a6.79 6.79 0 006.78 6.79z" style="isolation:isolate;transform-origin:215.17px 370.59px" class="animable" opacity=".1" id="elefu5i7473uj"/><path style="transform-origin:182.065px 412.14px" class="animable" fill="#263238" transform="rotate(180)" d="M124.97 408.39h114.19v7.5H124.97z" id="elxgbppri8g37"/><path style="isolation:isolate;transform-origin:182.065px 412.14px" class="animable" fill="#fff" opacity=".2" transform="rotate(180)" d="M124.97 408.39h114.19v7.5H124.97z" id="elcrbd5puiu9w"/><path style="isolation:isolate;transform-origin:206.79px 412.14px" class="animable" fill="#fff" opacity=".2" transform="rotate(180)" d="M174.42 408.39h64.74v7.5h-64.74z" id="el0f7mi7zgbvpj"/><path d="M204.43 365.71h-84.27l-12.84-66.32a11.75 11.75 0 0111.54-14h60.33a11.75 11.75 0 0111.54 9.52z" style="transform-origin:155.766px 325.55px" id="elswukwduwcu" class="animable" fill="#407bff"/><path d="M204.43 365.71h-84.27l-12.84-66.32a11.75 11.75 0 0111.54-14h60.33a11.75 11.75 0 0111.54 9.52z" style="isolation:isolate;transform-origin:155.766px 325.55px" class="animable" fill="#fff" opacity=".6" id="elj2kv9026bhg"/><path d="M144.1 365.71h-23.94l-12.84-66.32a11.75 11.75 0 0111.54-14 11.75 11.75 0 0111.53 9.52z" style="isolation:isolate;transform-origin:125.601px 325.55px" class="animable" opacity=".1" id="elbfcyin51dit"/><rect x="116.97" y="364.9" width="131.22" height="45.56" rx="5.92" style="transform-origin:182.58px 387.68px" id="elhst6mex89o7" class="animable" fill="#407bff"/><rect x="116.97" y="364.9" width="131.22" height="45.56" rx="5.92" style="isolation:isolate;transform-origin:182.58px 387.68px" class="animable" fill="#fff" opacity=".6" id="ely636mlwix5n"/><rect x="116.97" y="364.9" width="62.93" height="45.56" rx="5.92" style="isolation:isolate;transform-origin:148.435px 387.68px" class="animable" opacity=".1" id="elu5i8l3p1cd8"/><path d="M186.64 272.38c8.65 2.08 14.28 10.52 21.5 14.05.09.08-.08.2 0 .29l-3.35 2.73a4.74 4.74 0 00-.86 2.55c0 .51.12.64.16.57a3.64 3.64 0 00-.31-1.66c-1.28-3.67-3.76-7.78-5.87-11.35-1.22-2.06-2.55-4.16-3.74-6.21a4.69 4.69 0 016.68-6.24 65.5 65.5 0 016.11 4.71c5.92 5.4 13.6 12.66 13.41 21.52 0 2.92-2.06 7.45-5.37 8.66-12.06 5.87-23.47-4.64-32.11-11.07-.34-.23-.63-.4-.78-.49s-.16-.09.19 0c-11.84-3.37-7.71-20.46 4.37-18z" style="transform-origin:197.805px 285.015px" id="elw216u6wh18" class="animable" fill="#263238"/><path d="M202.1 296c-1.12-.1-2.17-.25-3.21-.43s-2.26-.41-3.36-.65-2.14-.53-3.19-.81c-2.1-.56-4.13-1.25-6.13-2l-.18-.07a11.4 11.4 0 014.69-4.89s6.13 1.93 11.38 8.85z" style="transform-origin:194.065px 291.575px" class="animable" opacity=".2" id="elbydb5q7uvms"/><path style="transform-origin:246.82px 403.885px" id="el8w6y555b516" class="animable" fill="#e4897b" d="M240.7 396.2l12.24.9-.38 14.47-10.22-.73-1.64-14.64z"/><path style="transform-origin:246.825px 400.71px" class="animable" opacity=".2" d="M240.71 396.21l12.23.89-.21 8.11-11.11-.81-.91-8.19z" id="elp9b8xrgvs3m"/><path d="M240.88 415.89h2.67l.72-1.08 1.4 1.09h16.09a7.21 7.21 0 00-.69-3.68s-4.82-.43-6.67-2.83a.6.6 0 00-.6-.23c-1.6.34-8 1.55-11.46.3a.58.58 0 00-.79.52 39 39 0 01-.67 5.91z" style="transform-origin:251.331px 412.524px" id="el1tuf5cuvr1i" class="animable" fill="#263238"/><path d="M173.66 333.66s-18.21 34 3.39 34c27.19 0 53.08-6.85 53.08-6.85s-1.48 14.5 9 42l14.69-.12s5.72-59.09-5.24-69c-8.82-8-40.14-5.43-40.14-5.43z" style="transform-origin:210.898px 365.338px" id="eltadbhlx85en" class="animable" fill="#407bff"/><path d="M233.36 380.41c-.19.72-.37 1.42-.56 2.11-3.43-14.32-2.67-21.75-2.67-21.75s-25.89 6.85-53.08 6.85c-13.14 0-11.55-12.56-8.28-22.41 9.26-5.88 19-11.21 26-14.84l13.67-2.13s5.63-.47 12.8-.39c10.6 4.73 20.76 17.77 12.12 52.56z" style="transform-origin:201.547px 355.18px" class="animable" opacity=".2" id="elhyxfrek0kop"/><path d="M207.64 328.71c-15.8 8.73-56.14 6.3-63.34 5.08-.89-11.9-2-30.92-5.75-45a11.51 11.51 0 018.63-14.31 154.54 154.54 0 0134-2.83c4 .14 8.28 2.08 9.56 5.87 5.85 17.48 15.19 31.65 16.9 51.19z" style="transform-origin:172.887px 303.321px" id="elf19hj8p4a6o" class="animable" fill="#263238"/><path d="M171.26 280.78c-6.63.34-12.39-5.31-15.49-7.27 3.35-2.34 5-6.54 5.62-8.87.29-1 .41-1.7.41-1.7l11.26 5a6.68 6.68 0 00-.34 4.51 6 6 0 013.11 3.2.42.42 0 000 .1c.87 2.3 1.97 4.7-4.57 5.03z" style="transform-origin:166.131px 271.867px" id="elpd2i6oxymoc" class="animable" fill="#e4897b"/><path d="M175.87 275.76c-6.71 2.77-13.28-5.33-14.48-11.12.29-1 .41-1.7.41-1.7l11.26 5a6.68 6.68 0 00-.34 4.51 6 6 0 013.11 3.2.42.42 0 00.04.11z" style="transform-origin:168.63px 269.63px" class="animable" opacity=".2" id="ellmk43i0jqvc"/><path d="M171.66 280.76l-2.5-2.23-3.86 1.93s2.12 2.16 6.36.3z" style="transform-origin:168.48px 280.023px" id="elr0p1swgwzor" class="animable" fill="#407bff"/><path d="M171.66 280.76l-2.5-2.23-3.86 1.93s2.12 2.16 6.36.3z" style="transform-origin:168.48px 280.023px" class="animable" fill="#fff" opacity=".5" id="elo4pjemzxh3p"/><path d="M157.37 271.86s4.75 6.49 11.79 6.67a11 11 0 00-5.48 6.71 13.65 13.65 0 01-9.26-11.9 3.9 3.9 0 012.95-1.48z" style="transform-origin:161.79px 278.55px" id="el5gx9icrn6x" class="animable" fill="#407bff"/><path d="M171.66 280.76l3.34-2.86 3.82 1.09s-3.28 3.45-7.16 1.77z" style="transform-origin:175.24px 279.561px" id="eleizyv5uwnkc" class="animable" fill="#407bff"/><path d="M171.66 280.76l3.34-2.86 3.82 1.09s-3.28 3.45-7.16 1.77z" style="transform-origin:175.24px 279.561px" class="animable" fill="#fff" opacity=".5" id="el7pbk27hvh2e"/><path d="M172.72 272.46s2.42 3.14 2.32 5.44c3.21.87 4.31 5.7 4.31 5.7s1.31-7-3.5-10.61a5.19 5.19 0 00-3.13-.53z" style="transform-origin:176.116px 278.003px" id="elshtmzv5oxmn" class="animable" fill="#407bff"/><path d="M157.37 271.86s4.75 6.49 11.79 6.67a11 11 0 00-5.48 6.71 13.65 13.65 0 01-9.26-11.9 3.9 3.9 0 012.95-1.48z" style="transform-origin:161.79px 278.55px" class="animable" fill="#fff" opacity=".8" id="elcc50y1pgav"/><path d="M172.72 272.46s2.42 3.14 2.32 5.44c3.21.87 4.31 5.7 4.31 5.7s1.31-7-3.5-10.61a5.19 5.19 0 00-3.13-.53z" style="transform-origin:176.116px 278.003px" class="animable" fill="#fff" opacity=".8" id="elqorhln02xx"/><path style="transform-origin:224.44px 403.79px" id="elt9wkrnpr0vg" class="animable" fill="#e4897b" d="M217.26 397.36l12.2-1.26 2.16 14.31-10.19 1.07-4.17-14.12z"/><path style="transform-origin:223.97px 400.685px" class="animable" opacity=".2" d="M217.26 397.37l12.21-1.27 1.21 8.02-11.08 1.15-2.34-7.9z" id="elty266c30ah"/><path d="M219.66 415.89h2.66l.73-1.08 1.4 1.09h16.09a7.17 7.17 0 00-.7-3.68s-4.81-.43-6.67-2.83a.59.59 0 00-.59-.23c-1.6.34-8 1.55-11.47.3a.57.57 0 00-.78.52 39 39 0 01-.67 5.91z" style="transform-origin:230.11px 412.524px" id="el8m1l1msat7t" class="animable" fill="#263238"/><path d="M144.72 333.66s-7.61 25.1 12.86 32 40.69-5.29 40.69-5.29 0 5.29 18.24 44.14l15.11-2.85s-5.33-58.15-12-68-40.15-5.43-40.15-5.43z" style="transform-origin:187.478px 365.876px" id="el5soh6mmffgy" class="animable" fill="#407bff"/><path d="M198.47 265.81l-3.36 3.92c-4.76 2.6-7.05-4.1-7.05-4.1l-3.54-4a2.74 2.74 0 01.2-3.54l2.32-2.76a2.86 2.86 0 013.93-.63l3.61 3.24a5.58 5.58 0 011.62 2.22z" style="transform-origin:191.218px 262.256px" id="el74kfnuhbzvr" class="animable" fill="#e4897b"/><path d="M172.89 310.31s-9.25 18.87-28.59 23.48c-.77-10.3-1.64-26.91-4.36-39.26 3.85-2.31 14.48-4.8 14.48-4.8a34 34 0 002.88 13.42 64.07 64.07 0 0116.08-4c2.82-.36-.49 11.16-.49 11.16z" style="transform-origin:157.229px 311.76px" class="animable" opacity=".2" id="elzt812mnt0h"/><path d="M153.43 290.8a6.44 6.44 0 001.41-1.51c.11-.18.1-.16.08-.08s-.2.56-.32 1c-1.44 5.91-2.3 13.16-.56 19 .15.43.12.37-.27.25l2.63 2.4a5.76 5.76 0 00-1.54-1.42c-.84-.67-3.06-1.11-3.54-.75-.24.19.43.11 1.09-.12 5.56-2.05 11.28-6.15 16.56-9.16a4.71 4.71 0 016.3 6.61c-5.16 7.57-15.82 20.95-26.35 18.63a10.92 10.92 0 01-6.16-4.08l2.63 2.4c-5.09-2.85-7.56-7.51-9-12.29a50 50 0 01.28-26.86c1-3.06 2.28-6.18 5.06-8.45a9.28 9.28 0 0111.71 14.39z" style="transform-origin:155.341px 300.184px" id="ell292mmppv1" class="animable" fill="#263238"/><path d="M193.2 273.11l-2-2.24a33.94 33.94 0 007.78-6.09l3.6.94s-3.25 6.9-9.38 7.39z" style="transform-origin:196.89px 268.945px" id="ele4qx29cv5j5" class="animable" fill="#407bff"/><path d="M193.2 273.11l-2-2.24a33.94 33.94 0 007.78-6.09l3.6.94s-3.25 6.9-9.38 7.39z" style="transform-origin:196.89px 268.945px" class="animable" fill="#fff" opacity=".5" id="elv3zbjjpqoce"/><path d="M218.09 274.57l-2.9 8.9-10.25 18.11s-24.94 3.5-25.5-3.84c-.51-6.58 1.19-17.29 1.55-19.44l.06-.39c13.95 1.36 22.84 6.55 22.84 6.55 4.33-6.95 14.2-9.89 14.2-9.89z" style="transform-origin:198.718px 288.492px" class="animable" fill="#fff" opacity=".9" id="elews7lho3adw"/><path d="M218.09 274.57l-2.9 8.9-10.25 18.11s-24.94 3.5-25.5-3.84c-.51-6.58 1.19-17.29 1.55-19.44 10.17.93 22.91 7.1 22.91 7.1 1.39-4.4 14.19-10.83 14.19-10.83z" style="transform-origin:198.718px 288.492px" class="animable" opacity=".1" id="elwdna4erwbsi"/><path d="M214.93 304s-4.62 2.15-12.47 8.3a4.31 4.31 0 01-1.52.78 4.37 4.37 0 01-2.27.07 149.06 149.06 0 00-20.44-3.42s-.88-17 .94-29.64c0 0 14 1.21 24.72 5.33.31-.25 10.23-8.28 16.54-9.36.01-.06-7.93 16.34-5.5 27.94z" style="transform-origin:199.224px 294.663px" id="el0edr4tr8fbnf" class="animable" fill="#407bff"/><path d="M214.93 304s-4.62 2.15-12.47 8.3a4.31 4.31 0 01-1.52.78c.46-6.9 1.75-24.79 2.95-27.66.31-.25 10.23-8.28 16.54-9.36.01-.06-7.93 16.34-5.5 27.94z" style="transform-origin:210.685px 294.57px" class="animable" opacity=".1" id="elpxe41dcvz3"/><path d="M203 285.06a2.83 2.83 0 002-.51s-1.38 12.8-2.67 27.87a2.06 2.06 0 01-2.68.95s1.42-19.24 3.35-28.31z" style="transform-origin:202.325px 299.05px" id="elflv197fokjd" class="animable" fill="#407bff"/><path d="M203 285.06a2.83 2.83 0 002-.51s-1.38 12.8-2.67 27.87a2.06 2.06 0 01-2.68.95s1.42-19.24 3.35-28.31z" style="isolation:isolate;transform-origin:202.325px 299.05px" class="animable" fill="#fff" opacity=".2" id="elg359he7eci8"/><path d="M207.14 288.49s4.7-4 8.64-4.89l-.61 2.45a27.1 27.1 0 00-8.54 5.57z" style="transform-origin:211.205px 287.61px" class="animable" fill="#fff" opacity=".7" id="el7bfdw2pw6y"/><path d="M181.61 302.42s12 2 15.3 3.13v4.85s-10-2.22-15.44-2.8z" style="transform-origin:189.19px 306.41px" class="animable" opacity=".1" id="elfv37mbiher5"/><path d="M209.55 284.27l-.25 1.14a31.43 31.43 0 015-2.71l.44-1.48a21.77 21.77 0 00-5.19 3.05z" style="transform-origin:212.02px 283.315px" class="animable" fill="#fff" opacity=".7" id="elvfd09iyilad"/><path d="M171.26 300.34l.93 4.81c2.7 4.39 7.74-.06 7.74-.06l3.28-1.16a2.6 2.6 0 001.5-3l-.62-3.37a2.7 2.7 0 00-2.94-2.37l-3 .53a5.52 5.52 0 00-2.39 1.07z" style="transform-origin:178.021px 301.132px" id="elizcs40sbk3" class="animable" fill="#e4897b"/><path d="M169.84 299.3l3.38-.47a22.38 22.38 0 001.58 9l-2.2 4.4s-5.54-7.43-2.76-12.93z" style="transform-origin:171.93px 305.53px" id="eljo6aq20z75j" class="animable" fill="#407bff"/><path d="M169.84 299.3l3.38-.47a22.38 22.38 0 001.58 9l-2.2 4.4s-5.54-7.43-2.76-12.93z" style="transform-origin:171.93px 305.53px" class="animable" fill="#fff" opacity=".5" id="elhs79ow6sq6"/><path d="M185.66 258.16l-3.23-.5a.24.24 0 01-.21-.28.25.25 0 01.29-.21l3.22.5a.24.24 0 01.21.28.25.25 0 01-.28.21z" style="transform-origin:184.08px 257.664px" id="ellz2i7m7zf0j" class="animable" fill="#263238"/><path d="M185.94 253.63c-1 3.32-3.41 6.43-5.72 4.42a3.61 3.61 0 01-.85-3.6c.68-3.44 3.9-7.55 3.9-7.55s2.26-1.12 3.07 2.46a9.09 9.09 0 01-.4 4.27z" style="transform-origin:182.819px 252.71px" id="eljp0d2dwkpam" class="animable" fill="#263238"/><path d="M185.94 253.63c-1 3.32-3.41 6.43-5.72 4.42a3.61 3.61 0 01-.85-3.6 27 27 0 013.59-2.38s1.43-.55 2.98 1.56z" style="transform-origin:182.571px 255.345px" class="animable" fill="#fff" opacity=".5" id="elbna5btgj2fk"/><path d="M179 244.26c-7.12-4.61-16.21-.68-17.33 6.9s-1.71 12.75 2.25 17c7.87 8.35 14.29 5.53 17.82-1.51 3.12-6.38 4.42-17.71-2.74-22.39z" style="transform-origin:172.54px 257.786px" id="elvw9vpn5uyql" class="animable" fill="#e4897b"/><path d="M172.77 256.15a3.83 3.83 0 00-2.83-.61 7.46 7.46 0 002.83.61z" style="transform-origin:171.355px 255.816px" class="animable" opacity=".2" id="elyn9h0jb9ox"/><path d="M172.58 256.82a3.12 3.12 0 00-2.62.1 6.17 6.17 0 002.62-.1z" style="transform-origin:171.27px 256.797px" class="animable" opacity=".2" id="elqq3vh1boq"/><path d="M183.28 250c-2 2.85-7.13-2-11.49-3.83a2.52 2.52 0 00-3.48 1.9 2.62 2.62 0 000 1c.75 3.15-1.83 4.75-1.49 6.55.81 4.18-2.5 4.37-6.47 1.77a3.65 3.65 0 01-1.41-1.32c-2.05-1.26-2.49-3.85-1.8-7a25.19 25.19 0 011.84-5.24c2.56-5.46 11.84-6.24 11.84-6.24s8.77-1.44 11.89 3.8.57 8.61.57 8.61z" style="transform-origin:170.549px 248.255px" id="eltyxh0woj0y" class="animable" fill="#263238"/><path d="M174 256.7c-.15.65.08 1.26.51 1.35s.89-.37 1-1-.09-1.26-.52-1.35-.84.35-.99 1z" style="transform-origin:174.747px 256.875px" id="elh2wvg7p266" class="animable" fill="#263238"/><path d="M181.65 258.45c-.14.65.09 1.25.52 1.34s.89-.36 1-1-.08-1.25-.51-1.34-.86.34-1.01 1z" style="transform-origin:182.405px 258.62px" id="els0d41dt853j" class="animable" fill="#263238"/><path d="M172.14 254.38a.44.44 0 01-.19-.07.4.4 0 01-.08-.55 3.9 3.9 0 013.17-1.69.38.38 0 01.37.41.39.39 0 01-.41.37 3.15 3.15 0 00-2.5 1.37.38.38 0 01-.36.16z" style="transform-origin:173.603px 253.227px" id="elh5n1dibl2j" class="animable" fill="#263238"/><path d="M185.08 256.56a.41.41 0 01-.26-.27 3.08 3.08 0 00-1.87-2.12.38.38 0 01-.25-.49.39.39 0 01.49-.26 3.89 3.89 0 012.39 2.65.4.4 0 01-.27.49.45.45 0 01-.23 0z" style="transform-origin:184.137px 254.989px" id="elhv7xyrct4th" class="animable" fill="#263238"/><path d="M166.85 255.68c.81 4.18-2.5 4.37-6.47 1.77a3.65 3.65 0 01-1.41-1.32c-2.05-1.26-2.49-3.85-1.8-7a12.91 12.91 0 008.31-1.3 2.66 2.66 0 01-1.34 1.24 4.63 4.63 0 004.17-.94 2.62 2.62 0 000 1c.78 3.15-1.8 4.75-1.46 6.55z" style="transform-origin:162.662px 253.496px" class="animable" fill="#fff" opacity=".5" id="elrcbudl4eved"/><path d="M179 257.42l-1.61 5.38a3.53 3.53 0 002.91.29 11.37 11.37 0 00-1.3-5.67z" style="transform-origin:178.848px 260.349px" id="el6u7p0aujwh9" class="animable" fill="#de5753"/><path d="M176.91 266.8h-.12c-.14 0-3.3-1.16-4.35-3.25a.37.37 0 11.66-.34c.92 1.82 3.9 2.87 3.93 2.88a.37.37 0 01.23.48.38.38 0 01-.35.23z" style="transform-origin:174.841px 264.904px" id="eljqoe470ytj" class="animable" fill="#263238"/><path d="M166.86 257.76s-.15 4.49 1.62 6.63c0 0 2.76-3.33 5.12-3.31s3.31 2.87 3.31 2.87l-.86.44s-1.19-2.13-2.45-2.28-4.31 2.78-3.64 4.32 3.64 0 3.64 0l1.18.66s-1.77 2.93 1.67 2.66 3.74-4.46.46-4.88l.48-.94s3.37.13 4 3.28-1 8-8.85 7.15c-4.15-.45-11.72-5.09-8.18-15.49z" style="transform-origin:172.478px 266.109px" id="el5ynf2tokefu" class="animable" fill="#263238"/><path d="M180.3 257a.25.25 0 01-.16-.06 2 2 0 00-1.78-.43.24.24 0 01-.31-.17.25.25 0 01.16-.31 2.55 2.55 0 012.25.53.24.24 0 010 .35.25.25 0 01-.16.09z" style="transform-origin:179.287px 256.479px" id="elyy1bdqkg5hj" class="animable" fill="#263238"/><path d="M170.83 254.62h-.05l-7.78-1.68a1.52 1.52 0 00-1.84 1.13v.15a.25.25 0 11-.49-.12v-.15a2 2 0 012.44-1.5l7.77 1.67a.25.25 0 01.19.3.26.26 0 01-.24.2z" style="transform-origin:165.869px 253.505px" id="el5uj0bxautbd" class="animable" fill="#263238"/><path d="M183.21 261.82a1.27 1.27 0 01-.28 0l-1.2-.29a2.34 2.34 0 01-1.51-2.48v-2.34a.26.26 0 01.15-.23 4.68 4.68 0 012.91-.1 4.13 4.13 0 012.56 1.43.27.27 0 010 .23l-1.11 2.56a1.85 1.85 0 01-1.52 1.22zm-2.46-5V259c0 1 .44 1.82 1.13 2l1.19.29c.46.11 1-.28 1.28-.93l1.05-2.42a4.24 4.24 0 00-2.18-1.11 4.62 4.62 0 00-2.47.02z" style="transform-origin:183.034px 259.011px" id="elmiggygd6yj" class="animable" fill="#263238"/><path d="M174.6 259.71a3.25 3.25 0 01-.69-.08l-1.69-.41a2.09 2.09 0 01-1.61-2v-2.83a.25.25 0 01.16-.24s1.28-.48 4 .17a8.32 8.32 0 013.59 1.63.24.24 0 010 .31l-1.24 2.06a2.92 2.92 0 01-2.52 1.39zm-3.52-5.15v2.63a1.59 1.59 0 001.23 1.55l1.69.4a2.41 2.41 0 002.64-1.1l1.13-1.87a8.84 8.84 0 00-3.21-1.39 8 8 0 00-3.48-.22z" style="transform-origin:174.513px 256.845px" id="el5kx7op39jur" class="animable" fill="#263238"/><path d="M157.51 256.77a6.78 6.78 0 003.24 4.07c2.1 1.14 3.7-.61 3.58-2.87-.12-2-1.35-5.08-3.68-5.29a3.09 3.09 0 00-3.14 4.09z" style="transform-origin:160.839px 256.935px" id="eltoo9cg268j" class="animable" fill="#e4897b"/><rect x="107.1" y="330.72" width="53.44" height="79.74" rx="7.04" style="transform-origin:133.82px 370.59px" id="elorx4zytl8p" class="animable" fill="#407bff"/><rect x="107.1" y="330.72" width="53.44" height="79.74" rx="7.04" style="isolation:isolate;transform-origin:133.82px 370.59px" class="animable" fill="#fff" opacity=".6" id="eltuhoyh6jlp"/><path d="M149.58 410.46h-35.69a6.79 6.79 0 01-6.79-6.79V337.5a6.78 6.78 0 016.79-6.78h35.69a6.78 6.78 0 00-6.78 6.78v66.17a6.79 6.79 0 006.78 6.79z" style="isolation:isolate;transform-origin:128.34px 370.59px" class="animable" opacity=".2" id="el2qtpck6alow"/></g><defs><filter id="active" height="200%"><feMorphology in="SourceAlpha" result="DILATED" operator="dilate" radius="2"/><feFlood flood-color="#32DFEC" flood-opacity="1" result="PINK"/><feComposite in="PINK" in2="DILATED" operator="in" result="OUTLINE"/><feMerge><feMergeNode in="OUTLINE"/><feMergeNode in="SourceGraphic"/></feMerge></filter><filter id="hover" height="200%"><feMorphology in="SourceAlpha" result="DILATED" operator="dilate" radius="2"/><feFlood flood-color="red" flood-opacity=".5" result="PINK"/><feComposite in="PINK" in2="DILATED" operator="in" result="OUTLINE"/><feMerge><feMergeNode in="OUTLINE"/><feMergeNode in="SourceGraphic"/></feMerge><feColorMatrix values="0 0 0 0 0 0 1 0 0 0 0 0 0 0 0 0 0 0 1 0"/></filter></defs></svg>