<svg class="animated" id="freepik_stories-reading-glasses" xmlns="http://www.w3.org/2000/svg" viewBox="0 0 500 500" version="1.1" xmlns:xlink="http://www.w3.org/1999/xlink" xmlns:svgjs="http://svgjs.com/svgjs"><style>svg#freepik_stories-reading-glasses:not(.animated) .animable {opacity: 0;}svg#freepik_stories-reading-glasses.animated #freepik--background-simple--inject-1 {animation: 1s 1 forwards ease-in zoomIn;animation-delay: 0s;}svg#freepik_stories-reading-glasses.animated #el217liajstrq {animation: 0.5s 1 forwards linear slideUp;animation-delay: 0s;}svg#freepik_stories-reading-glasses.animated #elv3tjxqszf8 {animation: 0.5s 1 forwards linear slideUp;animation-delay: 0.16666666666666666s;opacity: 0}svg#freepik_stories-reading-glasses.animated #elvlvkpgwjvt {animation: 0.5s 1 forwards linear slideUp;animation-delay: 0.3333333333333333s;opacity: 0}svg#freepik_stories-reading-glasses.animated #freepik--speech-bubble--inject-1 {animation: 0.5s 1 forwards linear slideUp,3s Infinite  linear floating;animation-delay: 0s,0.5s;}svg#freepik_stories-reading-glasses.animated #freepik--Character--inject-1 {animation: 3s Infinite  linear wind;animation-delay: 0s;}            @keyframes zoomIn {                0% {                    opacity: 0;                    transform: scale(0.5);                }                100% {                    opacity: 1;                    transform: scale(1);                }            }                    @keyframes slideUp {                0% {                    opacity: 0;                    transform: translateY(30px);                }                100% {                    opacity: 1;                    transform: inherit;                }            }                    @keyframes floating {                0% {                    opacity: 1;                    transform: translateY(0px);                }                50% {                    transform: translateY(-10px);                }                100% {                    opacity: 1;                    transform: translateY(0px);                }            }                    @keyframes wind {                0% {                    transform: rotate( 0deg );                }                25% {                    transform: rotate( 1deg );                }                75% {                    transform: rotate( -1deg );                }            }        </style><g id="freepik--background-simple--inject-1" class="animable animator-active" style="transform-origin: 248.979px 240.687px;"><path d="M249.5,95.18c82.32,37,7.59,103,55.12,139s176.76-5.61,127.5,87.75C374.25,431.58,120.84,416.35,66.2,281.85S167.18,58.14,249.5,95.18Z" style="fill: rgb(64, 123, 255); transform-origin: 248.979px 240.687px;" id="elspxgopttm4" class="animable"></path><g id="elxp6kdn1anys"><path d="M249.5,95.18c82.32,37,7.59,103,55.12,139s176.76-5.61,127.5,87.75C374.25,431.58,120.84,416.35,66.2,281.85S167.18,58.14,249.5,95.18Z" style="fill: rgb(255, 255, 255); opacity: 0.9; transform-origin: 248.979px 240.687px;" class="animable"></path></g></g><g id="freepik--Shadow--inject-1" class="animable" style="transform-origin: 250px 416.24px;"><ellipse id="freepik--path--inject-1" cx="250" cy="416.24" rx="193.89" ry="11.32" style="fill: rgb(245, 245, 245); transform-origin: 250px 416.24px;" class="animable"></ellipse></g><g id="freepik--Lamp--inject-1" class="animable" style="transform-origin: 124.852px 293.363px;"><path d="M75.42,414.11a1.5,1.5,0,0,1-1.5-1.5V226.73A55.86,55.86,0,0,1,172,190.12a1.5,1.5,0,0,1-2.27,2,52.85,52.85,0,0,0-92.78,34.64V412.61A1.5,1.5,0,0,1,75.42,414.11Z" style="fill: rgb(38, 50, 56); transform-origin: 123.148px 292.473px;" id="elurghsq22byg" class="animable"></path><polygon points="107.91 415.89 64.37 415.89 67 408.77 105.28 408.77 107.91 415.89" id="eljdj0qsqulrg" class="animable" style="transform-origin: 86.14px 412.33px;"></polygon><g id="el40ivbf3awpj"><polygon points="107.91 415.89 64.37 415.89 67 408.77 105.28 408.77 107.91 415.89" style="fill: rgb(255, 255, 255); isolation: isolate; opacity: 0.2; transform-origin: 86.14px 412.33px;" class="animable"></polygon></g><g id="el5q1lq9iz6ho"><polygon points="107.91 415.89 80.17 415.89 80.17 408.77 105.28 408.77 107.91 415.89" style="fill: rgb(255, 255, 255); isolation: isolate; opacity: 0.2; transform-origin: 94.04px 412.33px;" class="animable"></polygon></g><g id="elxyoks8pt7qn"><path d="M170.36,186.69h.53a12.94,12.94,0,0,1,12.94,12.94v1.77a0,0,0,0,1,0,0H157.41a0,0,0,0,1,0,0v-1.77A12.94,12.94,0,0,1,170.36,186.69Z" style="fill: rgb(38, 50, 56); transform-origin: 170.62px 194.045px; transform: rotate(-15.8deg);" class="animable"></path></g><g id="elrxv0pynzqn"><path d="M184.92,196.08l.41,1.45-25.42,7.2-.41-1.45A13.21,13.21,0,0,1,168.62,187a13.85,13.85,0,0,1,2.89-.48,13.2,13.2,0,0,1,13.41,9.59Z" style="fill: rgb(255, 255, 255); isolation: isolate; opacity: 0.2; transform-origin: 172.169px 195.616px;" class="animable"></path></g><g id="elsnsjecbm6c"><path d="M184.92,196.08l.41,1.45-16.24,4.6-.41-1.45c-1.72-6.06-.44-11.89,2.83-14.19a13.2,13.2,0,0,1,13.41,9.59Z" style="fill: rgb(255, 255, 255); isolation: isolate; opacity: 0.2; transform-origin: 176.622px 194.301px;" class="animable"></path></g></g><g id="freepik--Glasess--inject-1" class="animable" style="transform-origin: 314.848px 249.3px;"><path d="M283,271.45a7.79,7.79,0,0,1-2.24-2c-1.66-2.27-2.22-13.15-5-16-.49-.5-2.38-1.16-5.16-1.91-8.91-2.38-27-5.64-37.4-7.44l-1.24-.22V236l1,.29c9.3,2.6,28.38,8,38.88,11.64,3.95,1.36,6.67,2.45,7.22,3,2,2.09,4.61,14.24,5.65,19.3A1.16,1.16,0,0,1,283,271.45Z" style="fill: rgb(38, 50, 56); transform-origin: 258.345px 253.8px;" id="elfdue1m3hzaf" class="animable"></path><g id="elmyrgwoaflm"><path d="M271.86,247.91l-1.27,3.59c-8.91-2.38-27-5.64-37.4-7.44l-.51-6.46a2.35,2.35,0,0,1,.13-.95,3.34,3.34,0,0,1,.17-.38C242.28,238.87,261.36,244.32,271.86,247.91Z" style="fill: rgb(255, 255, 255); opacity: 0.4; transform-origin: 252.267px 243.885px;" class="animable"></path></g><path d="M232,236l-1.82-.51c-.34-.09.89-2.36.89-2.36l-4.85,1.74a1.47,1.47,0,0,0-1,1.43l.1,5.21a1.49,1.49,0,0,0,1.24,1.44l5.42.92Z" style="fill: rgb(38, 50, 56); transform-origin: 228.61px 238.5px;" id="elzj5v87wv6tk" class="animable"></path><g id="el2n53bxaunov"><path d="M231,233.1a3.14,3.14,0,0,1-1.58.88,22.41,22.41,0,0,0-3.83,1.59c-.38.32,0,5.74,0,6.26s4.64,1.15,4.64,1.15l-.12-7.52Z" style="fill: rgb(255, 255, 255); opacity: 0.1; transform-origin: 228.211px 238.04px;" class="animable"></path></g><g id="elygd7wg6cqp"><path d="M230,234.29a39.83,39.83,0,0,0-4.11,1.49,12.87,12.87,0,0,0,0,2s.52-1.31,1-1,.24,1.21,1.14,1,1.37.87,1.37.87S229.23,235,230,234.29Z" style="fill: rgb(255, 255, 255); opacity: 0.1; transform-origin: 227.926px 236.47px;" class="animable"></path></g><path d="M398.83,250.94c-2.49-2.66-52.88-16.57-52.88-16.57s-5.2-1.58-7.61-2.12l-.78,10.21h7s48.18,8.1,50.95,11,3.32,13.75,5,16a8.12,8.12,0,0,0,2.05,1.91,1.25,1.25,0,0,0,1.89-1.31C403.37,264.85,400.76,253,398.83,250.94Z" style="fill: rgb(38, 50, 56); transform-origin: 371.018px 251.906px;" id="elv751rrpa84m" class="animable"></path><path d="M279.27,239.59a27.56,27.56,0,0,1-.39,7.07c-.71,2.83-2.72,3.33-4.9,7.24S277.61,237.29,279.27,239.59Z" style="fill: rgb(38, 50, 56); transform-origin: 276.421px 246.903px;" id="elxo1nmyyv86" class="animable"></path><path d="M295.59,239.31a33.46,33.46,0,0,1,2.47,7.14c.44,2.86-1.38,3.36-2,7.3S293,237,295.59,239.31Z" style="fill: rgb(38, 50, 56); transform-origin: 296.275px 246.69px;" id="elutmy65nog8g" class="animable"></path><path d="M341.74,234.37a1.93,1.93,0,0,0-.46-1.1c-.25-.26-6.34-6.41-23.63-6.41-15.78,0-24.55,6-24.92,6.31-.06.05-.12.13-.18.19-1.88-1.19-6.48-3.2-12.44,0a1.08,1.08,0,0,0-.18-.23c-.31-.26-7.75-6.31-23.52-6.31-17.3,0-24.73,6.15-25,6.41a2.5,2.5,0,0,0-.71,1.1,2.84,2.84,0,0,0-.13,1l1.73,23.1c.59,7.86,5.21,13.34,11.24,13.34h10.9c8,0,15.72-6.85,19.27-17.07,0,0,5.89-14.78,6.12-14.92,6.63-4.16,11.34-.24,11.53-.07s2.91,15,2.91,15c1.3,10.22,7.54,17.07,15.51,17.07h10.9c6,0,11.87-5.48,14.18-13.34l6.82-23.1A2.65,2.65,0,0,0,341.74,234.37Zm-46.42,2.07a1.87,1.87,0,0,1,.86-1.09,48,48,0,0,1,21-4.46c11.29,0,17.51,2.73,20.25,4.41a1.41,1.41,0,0,1,.6,1.06,2.22,2.22,0,0,1-.08,1l-6,20.19c-1.78,6.05-6.29,10.3-10.93,10.3h-10.9c-6.64,0-11.88-5.77-13-14.26l-2-16.06A2.17,2.17,0,0,1,295.32,236.44Zm-61.43-.08a1.91,1.91,0,0,1,.85-1.06c3.11-1.68,9.93-4.41,21.23-4.41,10.33,0,16.93,2.75,20,4.46a1.42,1.42,0,0,1,.64,1.09,2.21,2.21,0,0,1-.11,1.07L271,253.56c-2.95,8.5-9.47,14.27-16.11,14.27h-10.9c-4.64,0-8.22-4.25-8.67-10.3l-1.51-20.19A2.67,2.67,0,0,1,233.89,236.36Z" style="fill: rgb(38, 50, 56); transform-origin: 286.163px 249.3px;" id="el3mo1u4kj7lf" class="animable"></path><path d="M340.65,234.72a1.82,1.82,0,0,0-.47-1.07c-.25-.26-6.35-6.25-23.64-6.25-15.78,0-24.53,5.89-24.9,6.14a1.62,1.62,0,0,0-.18.19c-1.89-1.15-6.49-3.12-12.44,0l-.18-.22c-.31-.25-7.77-6.14-23.54-6.14-17.3,0-24.72,6-25,6.25a2.35,2.35,0,0,0-.71,1.07,2.64,2.64,0,0,0-.12,1l1.79,22.51c.61,7.66,5.25,13,11.28,13h10.9c8,0,15.7-6.67,19.22-16.63,0,0,5.85-14.41,6.07-14.54,6.63-4.05,11.35-.23,11.54-.06s2.95,14.6,2.95,14.6c1.33,10,7.58,16.63,15.56,16.63h10.9c6,0,11.85-5.34,14.14-13l6.75-22.51A2.44,2.44,0,0,0,340.65,234.72Zm-46.42,2a1.86,1.86,0,0,1,.87-1.06,48.77,48.77,0,0,1,21-4.35c11.29,0,17.52,2.67,20.26,4.3a1.39,1.39,0,0,1,.61,1,2.28,2.28,0,0,1-.08,1L331,257.28c-1.76,5.89-6.26,10-10.91,10h-10.9c-6.64,0-11.89-5.62-13-13.89l-2.08-15.64A2.19,2.19,0,0,1,294.23,236.73Zm-61.42-.08a1.89,1.89,0,0,1,.84-1c3.11-1.63,9.92-4.3,21.22-4.3,10.33,0,16.94,2.68,20,4.35a1.37,1.37,0,0,1,.65,1.06,2.14,2.14,0,0,1-.11,1.05l-5.53,15.63c-2.93,8.28-9.43,13.9-16.07,13.9H243c-4.64,0-8.23-4.14-8.7-10l-1.57-19.67A2.57,2.57,0,0,1,232.81,236.65Z" style="fill: rgb(38, 50, 56); transform-origin: 285.065px 249.285px;" id="elvjew3d6elyi" class="animable"></path><g id="elcevpjm1wmxp"><path d="M279.6,238.64s.73-3,.42-3.85,2.49-1.9,4.15-1.95a6.77,6.77,0,0,1,2.92.24c.26.22-1.3-.06-2.33.83s.07,1.61-1.16,2.42-.57.91-.89,1.16A28.68,28.68,0,0,1,279.6,238.64Z" style="fill: rgb(255, 255, 255); opacity: 0.1; transform-origin: 283.359px 235.709px;" class="animable"></path></g><g id="elqqvh9ke5ve"><path d="M275.14,231.9s-6.47-4.12-20.87-4.12-22.4,5.24-23.61,6.59-.54,4.07.33,14.39,1.18,15.75,5.72,19.07c0,0-3.29-5.33-3.07-7.36s-.88-7.66-1.26-14.3-1.19-10.55,0-11.31,7.25-4.81,18.37-5.22,17.06,2.2,18.22,1.68,4.08.72,4.77.72A8.34,8.34,0,0,0,275.14,231.9Z" style="fill: rgb(255, 255, 255); opacity: 0.1; transform-origin: 252.571px 247.805px;" class="animable"></path></g><g id="ela9lxel5bswb"><g style="opacity: 0.4; transform-origin: 284.869px 249.356px;" class="animable"><path d="M253.79,268.08h-10.9c-4.79,0-8.45-4.33-8.92-10.53l-1.51-20.19a3.06,3.06,0,0,1,.14-1.08,2.17,2.17,0,0,1,1-1.2c3.08-1.66,9.94-4.44,21.35-4.44,10.48,0,17.12,2.82,20.15,4.49h0a1.63,1.63,0,0,1,.77,1.27,2.44,2.44,0,0,1-.12,1.19l-5.58,16C267.14,262.28,260.57,268.08,253.79,268.08Zm1.13-36.94c-11.3,0-18.08,2.74-21.11,4.38a1.57,1.57,0,0,0-.73.93,2.14,2.14,0,0,0-.12.87l1.51,20.19c.44,5.93,3.91,10.07,8.42,10.07h10.9c6.56,0,12.94-5.67,15.87-14.11l5.58-16a2,2,0,0,0,.1-1,1.19,1.19,0,0,0-.51-.91C271.84,233.92,265.28,231.14,254.92,231.14Z" style="fill: rgb(255, 255, 255); transform-origin: 254.176px 249.36px;" id="el6wko3p4530t" class="animable"></path><path d="M320,268.08h-10.9c-6.79,0-12.1-5.82-13.22-14.48l-2-16.06a2.45,2.45,0,0,1,.14-1.19,2.08,2.08,0,0,1,1-1.22,48,48,0,0,1,21.14-4.49c11.4,0,17.66,2.78,20.38,4.45a1.66,1.66,0,0,1,.72,1.24,2.52,2.52,0,0,1-.09,1.08l-6,20.19C329.39,263.77,324.8,268.08,320,268.08Zm-3.88-36.94a47.44,47.44,0,0,0-20.91,4.44,1.58,1.58,0,0,0-.75.94,2,2,0,0,0-.12,1l2,16.06c1.08,8.4,6.19,14,12.72,14H320c4.54,0,8.94-4.16,10.69-10.12l6-20.19a2,2,0,0,0,.07-.87h0a1.17,1.17,0,0,0-.48-.88C333.61,233.88,327.44,231.14,316.16,231.14Z" style="fill: rgb(255, 255, 255); transform-origin: 315.571px 249.356px;" id="elnc1pw805rw" class="animable"></path></g></g><g id="el7kr7f55baen"><path d="M292,234.11c-.61.55-.34,1.23-.29,2.68a12.15,12.15,0,0,1-.38,3s2.94,16.46,3.42,17.77.74.76.91.55,1.16,1.37,1.16,1.37a70.49,70.49,0,0,1-2.6-13.68c-.9-8.6-1.25-9.82-.67-10.66s7.78-4.06,13.88-4.75a82.87,82.87,0,0,1,18.07,0c4.29.62,4.44-.77,5.1-.49a10.56,10.56,0,0,0,2.52.35s-11.71-3.64-24-2S292,234.11,292,234.11Z" style="fill: rgb(255, 255, 255); opacity: 0.1; transform-origin: 312.225px 243.653px;" class="animable"></path></g><path d="M310.64,236.93c1.92-3.58-.32-2.07-1.82.27s-7.07,21.46-6.11,25.86a56.86,56.86,0,0,0-4-6.74c-.46-.51-.94-3.16-1.36-6.35-.38-2.89-.71-6.22-.93-8.83-.18-2.24-.29-3.94-.26-4.36.05-1.43,8.11-4.53,19.46-4.53,0,0-6.82,14.09-8.71,20.08C306.88,252.33,308.73,240.5,310.64,236.93Z" style="fill: rgb(255, 255, 255); transform-origin: 305.888px 247.655px;" id="elbxhpcqy7vc" class="animable"></path><g id="el6keh7ue3d3n"><path d="M297.32,250c-.38-2.89-.71-6.22-.93-8.83a26.22,26.22,0,0,1,1.67,5.31A5.12,5.12,0,0,1,297.32,250Z" style="opacity: 0.2; transform-origin: 297.254px 245.585px;" class="animable"></path></g><g id="ell9iecro5e"><path d="M345.41,234.51s-4-1.21-6.25-1.75l0,.08c-2.32-1.7-9-5.44-22.67-5.44-15.78,0-24.53,5.89-24.9,6.14a1.62,1.62,0,0,0-.18.19c-1.89-1.15-6.49-3.12-12.44,0-.06-.07-.11-.15-.18-.22-.31-.25-7.77-6.14-23.54-6.14-17.3,0-24.72,6-25,6.25a2.35,2.35,0,0,0-.71,1.07,2.64,2.64,0,0,0-.12,1l1.79,22.51c.61,7.66,5.25,13,11.28,13h10.9c8,0,15.7-6.67,19.22-16.63,0,0,5.85-14.41,6.07-14.54,6.63-4.05,11.35-.23,11.54-.06s2.95,14.6,2.95,14.6c1.33,10,7.58,16.63,15.56,16.63h10.9c6,0,11.85-5.34,14.14-13l5.73-19.1-.37,2.45h5s.66-.12.78-.48,1-5,1-5.56A1.64,1.64,0,0,0,345.41,234.51Zm-70,3.27-5.53,15.63c-2.93,8.28-9.43,13.9-16.07,13.9H243c-4.64,0-8.23-4.14-8.7-10l-1.57-19.67a2.57,2.57,0,0,1,.13-1,1.89,1.89,0,0,1,.84-1c3.11-1.63,9.92-4.3,21.22-4.3,10.33,0,16.94,2.68,20,4.35a1.37,1.37,0,0,1,.65,1.06A2.14,2.14,0,0,1,275.45,237.78Zm61.45-.17L331,257.28c-1.76,5.89-6.26,10-10.91,10h-10.9c-6.64,0-11.89-5.62-13-13.89l-2.08-15.64a2.19,2.19,0,0,1,.12-1.05,1.86,1.86,0,0,1,.87-1.06,48.77,48.77,0,0,1,21-4.35c11.29,0,17.52,2.67,20.26,4.3a1.39,1.39,0,0,1,.61,1A2.28,2.28,0,0,1,336.9,237.61Z" style="fill: rgb(255, 255, 255); opacity: 0.1; transform-origin: 287.662px 249.285px;" class="animable"></path></g><g id="el5xg8bm1m01j"><path d="M340,233.63c.69.38.83.63.64,1.8s-.64,3.15-.64,3.15.31-1.35,1.49-1.28a8.14,8.14,0,0,0,3.46-.52c.21-.27.52-1.47.34-1.58s-3-1.15-3.8-1.36A6.55,6.55,0,0,0,340,233.63Z" style="fill: rgb(255, 255, 255); opacity: 0.1; transform-origin: 342.672px 236.105px;" class="animable"></path></g><path d="M254.68,232.25s-2.37,4.11-5,8.81c-1,1.78-2,3.65-3,5.41-1.74,3.18-3.2,6-3.7,7.3.07-.39.79-3.8,1.72-7.65.5-2,1.05-4.16,1.62-6a37.35,37.35,0,0,1,1.3-3.8c-.08.12-.8,1.05-2,2.36a5.11,5.11,0,0,0-.58,1.08c-.57,1.27-1.41,3.49-2.31,6-2.39,6.7-5.32,15.68-5.32,15.68a3.88,3.88,0,0,1-1.26-2.67s-.64-8.06-1.1-14.37c-.27-3.83-.48-7-.43-7.41a.49.49,0,0,1,.1-.21C235.81,235.55,243.86,232.38,254.68,232.25Z" style="fill: rgb(255, 255, 255); transform-origin: 244.646px 246.845px;" id="el3g8jxikdret" class="animable"></path><g id="elxytxst2s7re"><path d="M245.11,239.72c-.57,1.27-1.41,3.49-2.31,6-2.75-.49-5.35-1-7.68-1.36-.27-3.83-.48-7-.43-7.41a.49.49,0,0,1,.1-.21C237.69,237.59,241.27,238.61,245.11,239.72Z" style="opacity: 0.2; transform-origin: 239.896px 241.23px;" class="animable"></path></g><g id="el6974j652t04"><path d="M249.7,241.06c-1,1.78-2,3.65-3,5.41l-2-.35c.5-2,1.05-4.16,1.62-6Z" style="opacity: 0.2; transform-origin: 247.2px 243.295px;" class="animable"></path></g></g><g id="freepik--Books--inject-1" class="animable" style="transform-origin: 326.24px 343.735px;"><g id="el2x1c3chvnpf"><rect x="234.57" y="330.8" width="60.24" height="26.13" style="fill: rgb(64, 123, 255); transform-origin: 264.69px 343.865px; transform: rotate(180deg);" class="animable"></rect></g><g id="elpyd3aatrq6"><rect x="234.57" y="330.8" width="60.24" height="26.13" style="fill: rgb(255, 255, 255); opacity: 0.8; transform-origin: 264.69px 343.865px; transform: rotate(180deg);" class="animable"></rect></g><g id="elg7szxtuffl9"><polygon points="289.98 333.35 234.57 333.35 234.57 330.8 289.93 330.8 289.98 333.35" style="isolation: isolate; opacity: 0.2; transform-origin: 262.275px 332.075px;" class="animable"></polygon></g><g id="el0j7t8v8xm1l"><polygon points="289.99 335.58 240 336.65 289.99 337.71 289.99 335.58" style="isolation: isolate; opacity: 0.2; transform-origin: 264.995px 336.645px;" class="animable"></polygon></g><g id="elz7f9qkut08t"><polygon points="289.99 345.24 237.05 346.14 289.99 346.89 289.99 345.24" style="isolation: isolate; opacity: 0.2; transform-origin: 263.52px 346.065px;" class="animable"></polygon></g><g id="elu9pspfbkq7n"><polygon points="289.99 350.89 237.52 351.95 289.99 353.02 289.99 350.89" style="isolation: isolate; opacity: 0.2; transform-origin: 263.755px 351.955px;" class="animable"></polygon></g><g id="elixg91409bm7"><polygon points="234.57 339.3 285.33 340.84 234.57 341.9 234.57 339.3" style="isolation: isolate; opacity: 0.2; transform-origin: 259.95px 340.6px;" class="animable"></polygon></g><path d="M369,343.73a11.81,11.81,0,0,1-11.84,11.82H231.79a.88.88,0,0,0-.87.88v.93a.87.87,0,0,0,.87.88h126a14.55,14.55,0,0,0,14.53-14.64,14.77,14.77,0,0,0-14.9-14.41H231.79a.87.87,0,0,0-.87.87V331a.87.87,0,0,0,.87.88h125A12.17,12.17,0,0,1,369,343.73Z" style="fill: rgb(38, 50, 56); transform-origin: 301.62px 343.715px;" id="el74i07lsnrtw" class="animable"></path><g id="elu4vl9u3ehf"><path d="M369,343.73a11.81,11.81,0,0,1-11.84,11.82H231.79a.88.88,0,0,0-.87.88v.93a.87.87,0,0,0,.87.88h126a14.55,14.55,0,0,0,14.53-14.64,14.77,14.77,0,0,0-14.9-14.41H231.79a.87.87,0,0,0-.87.87V331a.87.87,0,0,0,.87.88h125A12.17,12.17,0,0,1,369,343.73Z" style="fill: rgb(255, 255, 255); opacity: 0.4; transform-origin: 301.62px 343.715px;" class="animable"></path></g><path d="M414.75,343.88h0A13.08,13.08,0,0,1,401.67,357H290V330.8H401.67A13.08,13.08,0,0,1,414.75,343.88Z" style="fill: rgb(64, 123, 255); transform-origin: 352.375px 343.9px;" id="elnsydw9oxcca" class="animable"></path><g id="elwe286oh1r7r"><path d="M290,330.8V357H401.67a13.09,13.09,0,0,0,0-26.17Z" style="fill: rgb(255, 255, 255); opacity: 0.7; transform-origin: 352.199px 343.9px;" class="animable"></path></g><g id="elmxca7j0s71"><polygon points="289.99 337.71 289.99 335.58 401.31 336.48 289.99 337.71" style="isolation: isolate; opacity: 0.2; transform-origin: 345.65px 336.645px;" class="animable"></polygon></g><g id="elst74t57bmp"><polygon points="289.99 346.89 289.99 345.24 339.96 347.03 289.99 346.89" style="isolation: isolate; opacity: 0.2; transform-origin: 314.975px 346.135px;" class="animable"></polygon></g><g id="el7ybgl5zvpqx"><polygon points="289.99 353.02 289.99 350.89 370.56 352.12 289.99 353.02" style="isolation: isolate; opacity: 0.2; transform-origin: 330.275px 351.955px;" class="animable"></polygon></g><g id="eli9xq7t4cfj"><path d="M401.85,333.35a8.71,8.71,0,0,1,5.82,2.24,22,22,0,0,0-1.64,4.24l-111.68.88,111.42.28a14.08,14.08,0,0,0,.1,5.95l-75.21,1.64,75.92.88a26.76,26.76,0,0,0,2.52,5.19,13.08,13.08,0,0,0-7.43-23.85H290v2.55Z" style="isolation: isolate; opacity: 0.2; transform-origin: 352.379px 342.725px;" class="animable"></path></g><path d="M413.72,343.73a11.83,11.83,0,0,1-11.85,11.82H288.11a.88.88,0,0,0-.87.88v.93a.87.87,0,0,0,.87.88H402.53a14.53,14.53,0,0,0,14.52-14.64,14.77,14.77,0,0,0-14.9-14.41h-114a.87.87,0,0,0-.87.87V331a.87.87,0,0,0,.87.88H401.53A12.17,12.17,0,0,1,413.72,343.73Z" style="fill: rgb(38, 50, 56); transform-origin: 352.145px 343.715px;" id="elxfo3bdaf8e" class="animable"></path><polygon points="401.31 340.4 401.31 350.89 397.51 347.1 393.83 350.78 393.83 340.4 401.31 340.4" style="fill: rgb(38, 50, 56); transform-origin: 397.57px 345.645px;" id="el68yp41m9zhx" class="animable"></polygon><rect x="243.66" y="388.45" width="162.59" height="26.17" style="fill: rgb(64, 123, 255); transform-origin: 324.955px 401.535px;" id="eltwthflos8mh" class="animable"></rect><g id="elbm2ln2wy9ln"><rect x="243.66" y="388.45" width="162.59" height="26.17" style="fill: rgb(255, 255, 255); opacity: 0.7; transform-origin: 324.955px 401.535px;" class="animable"></rect></g><g id="elxuxxgemf8ek"><polygon points="406.26 395.37 406.26 393.24 294.93 394.13 406.26 395.37" style="isolation: isolate; opacity: 0.2; transform-origin: 350.595px 394.305px;" class="animable"></polygon></g><g id="el27st6jtcz6g"><polygon points="406.26 404.54 406.26 402.9 356.28 404.68 406.26 404.54" style="isolation: isolate; opacity: 0.2; transform-origin: 381.27px 403.79px;" class="animable"></polygon></g><g id="elwaeyr8ueqb"><polygon points="406.26 410.67 406.26 408.55 325.68 409.78 406.26 410.67" style="isolation: isolate; opacity: 0.2; transform-origin: 365.97px 409.61px;" class="animable"></polygon></g><g id="elzokci5axcfb"><path d="M280,388.45,277.66,408l2.78-3a23.87,23.87,0,0,0,5.11,9.63,28.41,28.41,0,0,0,4.11-7.51l75.93-.87-75.22-1.64a15.16,15.16,0,0,0,.37-3.23,14.52,14.52,0,0,0-.27-2.73l111.43-.28-111.69-.87a20.34,20.34,0,0,0-1.64-4.24,8.71,8.71,0,0,1,5.82-2.24H406.26v-2.56Z" style="isolation: isolate; opacity: 0.2; transform-origin: 341.96px 401.54px;" class="animable"></path></g><path d="M282.52,401.38a11.85,11.85,0,0,0,11.85,11.83H408.13a.87.87,0,0,1,.88.87V415a.87.87,0,0,1-.88.87h-177a14.51,14.51,0,0,1-14.52-14.63,14.78,14.78,0,0,1,14.9-14.42H408.13a.87.87,0,0,1,.88.87v.94a.87.87,0,0,1-.88.87H294.72A12.19,12.19,0,0,0,282.52,401.38Z" style="fill: rgb(64, 123, 255); transform-origin: 312.81px 401.345px;" id="elsogoqvshkd" class="animable"></path><g id="el7ntvl6t5vfr"><path d="M282.52,401.38a11.85,11.85,0,0,0,11.85,11.83H408.13a.87.87,0,0,1,.88.87V415a.87.87,0,0,1-.88.87h-177a14.51,14.51,0,0,1-14.52-14.63,14.78,14.78,0,0,1,14.9-14.42H408.13a.87.87,0,0,1,.88.87v.94a.87.87,0,0,1-.88.87H294.72A12.19,12.19,0,0,0,282.52,401.38Z" style="isolation: isolate; opacity: 0.4; transform-origin: 312.81px 401.345px;" class="animable"></path></g><path d="M282.52,401.38a11.85,11.85,0,0,0,11.85,11.83H408.13a.87.87,0,0,1,.88.87V415a.87.87,0,0,1-.88.87H293.72a14.53,14.53,0,0,1-14.53-14.63,14.78,14.78,0,0,1,14.9-14.42h114a.87.87,0,0,1,.88.87v.94a.87.87,0,0,1-.88.87H294.72A12.19,12.19,0,0,0,282.52,401.38Z" style="fill: rgb(64, 123, 255); transform-origin: 344.1px 401.345px;" id="el3r2375j9kcs" class="animable"></path><polygon points="294.93 398.06 294.93 408.55 298.73 404.75 302.41 408.43 302.41 398.06 294.93 398.06" style="fill: rgb(38, 50, 56); transform-origin: 298.67px 403.305px;" id="elgfdghvpgcp" class="animable"></polygon><g id="eloisx62thwak"><path d="M282.52,401.38a11.85,11.85,0,0,0,11.85,11.83H408.13a.87.87,0,0,1,.88.87V415a.87.87,0,0,1-.88.87H293.72a14.53,14.53,0,0,1-14.53-14.63,14.78,14.78,0,0,1,14.9-14.42h114a.87.87,0,0,1,.88.87v.94a.87.87,0,0,1-.88.87H294.72A12.19,12.19,0,0,0,282.52,401.38Z" style="fill: rgb(255, 255, 255); opacity: 0.1; transform-origin: 344.1px 401.345px;" class="animable"></path></g><g id="els48x95lzh1a"><path d="M273.93,411.64a14.54,14.54,0,0,0,10.28,4.25h-4.83a14.51,14.51,0,0,1-14.52-14.64,14.76,14.76,0,0,1,14.9-14.41h4.82a14.77,14.77,0,0,0-14.9,14.41A14.5,14.5,0,0,0,273.93,411.64Z" style="fill: rgb(255, 255, 255); opacity: 0.1; transform-origin: 274.72px 401.365px;" class="animable"></path></g><g id="eld9eco5elwvd"><path d="M264.28,411.64a14.56,14.56,0,0,0,10.28,4.25h-4.83a14.51,14.51,0,0,1-14.52-14.64,14.77,14.77,0,0,1,14.9-14.41h4.82A14.77,14.77,0,0,0,260,401.25,14.5,14.5,0,0,0,264.28,411.64Z" style="fill: rgb(255, 255, 255); opacity: 0.1; transform-origin: 265.07px 401.365px;" class="animable"></path></g><rect x="256.41" y="359.62" width="162.59" height="26.17" style="fill: rgb(64, 123, 255); transform-origin: 337.705px 372.705px;" id="el21pqgw4olnn" class="animable"></rect><g id="elcg4s96kn1nu"><rect x="256.41" y="359.62" width="162.59" height="26.17" style="fill: rgb(255, 255, 255); opacity: 0.8; transform-origin: 337.705px 372.705px;" class="animable"></rect></g><g id="elxwji1451g6o"><polygon points="419 366.54 419 364.41 307.68 365.3 419 366.54" style="isolation: isolate; opacity: 0.2; transform-origin: 363.34px 365.475px;" class="animable"></polygon></g><g id="eleyqq8xr9mng"><polygon points="419 375.71 419 374.07 369.02 375.86 419 375.71" style="isolation: isolate; opacity: 0.2; transform-origin: 394.01px 374.965px;" class="animable"></polygon></g><g id="elxiefq00265"><polygon points="419 381.84 419 379.72 338.42 380.95 419 381.84" style="isolation: isolate; opacity: 0.2; transform-origin: 378.71px 380.78px;" class="animable"></polygon></g><g id="elz7en3pqyaq"><path d="M292.76,359.62l-2.36,19.51,2.78-3a24,24,0,0,0,5.12,9.63,28.59,28.59,0,0,0,4.1-7.5l75.93-.88-75.22-1.64a14.32,14.32,0,0,0,.11-5.95l111.42-.28L303,368.66a21.76,21.76,0,0,0-1.64-4.24,8.68,8.68,0,0,1,5.82-2.24H419v-2.56Z" style="isolation: isolate; opacity: 0.2; transform-origin: 354.7px 372.69px;" class="animable"></path></g><path d="M295.27,372.55a11.85,11.85,0,0,0,11.84,11.83H420.88a.87.87,0,0,1,.87.87v.94a.87.87,0,0,1-.87.87h-168a14.53,14.53,0,0,1-14.53-14.63A14.78,14.78,0,0,1,253.2,358H420.88a.87.87,0,0,1,.87.88v.93a.87.87,0,0,1-.87.87H307.46C300.94,360.69,295.26,366,295.27,372.55Z" style="fill: rgb(38, 50, 56); transform-origin: 330.05px 372.53px;" id="elwjkdauf1fus" class="animable"></path><g id="eldzpdz8obtj"><path d="M295.27,372.55a11.85,11.85,0,0,0,11.84,11.83H420.88a.87.87,0,0,1,.87.87v.94a.87.87,0,0,1-.87.87h-168a14.53,14.53,0,0,1-14.53-14.63A14.78,14.78,0,0,1,253.2,358H420.88a.87.87,0,0,1,.87.88v.93a.87.87,0,0,1-.87.87H307.46C300.94,360.69,295.26,366,295.27,372.55Z" style="fill: rgb(255, 255, 255); opacity: 0.4; transform-origin: 330.05px 372.53px;" class="animable"></path></g><path d="M295.27,372.55a11.85,11.85,0,0,0,11.84,11.83H420.88a.87.87,0,0,1,.87.87v.94a.87.87,0,0,1-.87.87H306.46a14.53,14.53,0,0,1-14.53-14.63A14.78,14.78,0,0,1,306.83,358H420.88a.87.87,0,0,1,.87.88v.93a.87.87,0,0,1-.87.87H307.46C300.94,360.69,295.26,366,295.27,372.55Z" style="fill: rgb(38, 50, 56); transform-origin: 356.84px 372.53px;" id="elbg7qwvu12ll" class="animable"></path><polygon points="316.69 365.5 316.69 376 320.49 372.2 324.17 375.88 324.17 365.5 316.69 365.5" style="fill: rgb(64, 123, 255); transform-origin: 320.43px 370.75px;" id="el4jzyjayckfk" class="animable"></polygon><g id="eljlhwn2xw0y"><path d="M295.27,372.55a11.85,11.85,0,0,0,11.84,11.83H420.88a.87.87,0,0,1,.87.87v.94a.87.87,0,0,1-.87.87H306.46a14.53,14.53,0,0,1-14.53-14.63A14.78,14.78,0,0,1,306.83,358H420.88a.87.87,0,0,1,.87.88v.93a.87.87,0,0,1-.87.87H307.46C300.94,360.69,295.26,366,295.27,372.55Z" style="fill: rgb(255, 255, 255); opacity: 0.6; transform-origin: 356.84px 372.53px;" class="animable"></path></g><g id="el6yruvtso4se"><path d="M286.66,365.71H249.53a8.51,8.51,0,0,0,0,13h37.13C284.26,375.43,284.26,369,286.66,365.71Z" style="isolation: isolate; opacity: 0.2; transform-origin: 266.586px 372.21px;" class="animable"></path></g><rect x="344.22" y="273.14" width="60.24" height="26.13" style="fill: rgb(64, 123, 255); transform-origin: 374.34px 286.205px;" id="ell1f4dnmz81" class="animable"></rect><g id="elizdixqbbeh9"><rect x="344.22" y="273.14" width="60.24" height="26.13" style="fill: rgb(255, 255, 255); opacity: 0.7; transform-origin: 374.34px 286.205px;" class="animable"></rect></g><g id="elxd3yam3kn3"><polygon points="349.05 275.7 404.46 275.7 404.46 273.14 349.11 273.14 349.05 275.7" style="isolation: isolate; opacity: 0.2; transform-origin: 376.755px 274.42px;" class="animable"></polygon></g><g id="elxckm7seoej"><polygon points="349.05 277.93 399.04 278.99 349.05 280.06 349.05 277.93" style="isolation: isolate; opacity: 0.2; transform-origin: 374.045px 278.995px;" class="animable"></polygon></g><g id="elrxxykkdn8u"><polygon points="349.05 287.59 401.99 288.48 349.05 289.23 349.05 287.59" style="isolation: isolate; opacity: 0.2; transform-origin: 375.52px 288.41px;" class="animable"></polygon></g><g id="ellt0rmj3kugi"><polygon points="349.05 293.24 401.51 294.3 349.05 295.36 349.05 293.24" style="isolation: isolate; opacity: 0.2; transform-origin: 375.28px 294.3px;" class="animable"></polygon></g><g id="elymizthbnlas"><polygon points="404.46 281.65 353.71 283.18 404.46 284.24 404.46 281.65" style="isolation: isolate; opacity: 0.2; transform-origin: 379.085px 282.945px;" class="animable"></polygon></g><path d="M270,286.07a11.85,11.85,0,0,0,11.84,11.83H407.24a.87.87,0,0,1,.87.87v.94a.87.87,0,0,1-.87.87h-126A14.51,14.51,0,0,1,266.68,286a14.77,14.77,0,0,1,14.89-14.42H407.24a.87.87,0,0,1,.87.87v.94a.87.87,0,0,1-.87.87h-125C275.68,274.21,270,279.55,270,286.07Z" style="fill: rgb(64, 123, 255); transform-origin: 337.395px 286.08px;" id="elrfamoyyii78" class="animable"></path><g id="elkkt6leshmag"><path d="M270,286.07a11.85,11.85,0,0,0,11.84,11.83H407.24a.87.87,0,0,1,.87.87v.94a.87.87,0,0,1-.87.87h-126A14.51,14.51,0,0,1,266.68,286a14.77,14.77,0,0,1,14.89-14.42H407.24a.87.87,0,0,1,.87.87v.94a.87.87,0,0,1-.87.87h-125C275.68,274.21,270,279.55,270,286.07Z" style="fill: rgb(255, 255, 255); opacity: 0.4; transform-origin: 337.395px 286.08px;" class="animable"></path></g><path d="M224.28,286.23h0a13.09,13.09,0,0,0,13.09,13.08H349.05V273.14H237.37A13.09,13.09,0,0,0,224.28,286.23Z" style="fill: rgb(64, 123, 255); transform-origin: 286.665px 286.225px;" id="el3ts59a1gsl1" class="animable"></path><g id="el4bwilu9mhtd"><path d="M349.05,273.14v26.17H237.36a13.09,13.09,0,0,1,0-26.17Z" style="fill: rgb(255, 255, 255); opacity: 0.5; transform-origin: 286.841px 286.225px;" class="animable"></path></g><g id="elz3o5c9h5s1c"><polygon points="349.05 280.06 349.05 277.93 237.72 278.82 349.05 280.06" style="isolation: isolate; opacity: 0.2; transform-origin: 293.385px 278.995px;" class="animable"></polygon></g><g id="elpjvyw30cnlg"><polygon points="349.05 289.23 349.05 287.59 299.07 289.38 349.05 289.23" style="isolation: isolate; opacity: 0.2; transform-origin: 324.06px 288.485px;" class="animable"></polygon></g><g id="el65xkvx5tjve"><polygon points="349.05 295.36 349.05 293.24 268.47 294.47 349.05 295.36" style="isolation: isolate; opacity: 0.2; transform-origin: 308.76px 294.3px;" class="animable"></polygon></g><g id="elwj7xi0uwqbq"><path d="M237.18,275.7a8.77,8.77,0,0,0-5.82,2.23,21.25,21.25,0,0,1,1.65,4.25l111.68.87-111.42.28a15.41,15.41,0,0,1,.27,2.73,14.93,14.93,0,0,1-.38,3.22l75.22,1.65-75.93.88a26.47,26.47,0,0,1-2.52,5.19,13.09,13.09,0,0,1,7.43-23.86H349.05v2.56Z" style="isolation: isolate; opacity: 0.2; transform-origin: 286.665px 285.07px;" class="animable"></path></g><path d="M225.32,286.07a11.83,11.83,0,0,0,11.84,11.83H350.93a.87.87,0,0,1,.87.87v.94a.87.87,0,0,1-.87.87H236.51A14.53,14.53,0,0,1,222,286a14.78,14.78,0,0,1,14.9-14.42H350.93a.87.87,0,0,1,.87.87v.94a.87.87,0,0,1-.87.87H237.51A12.17,12.17,0,0,0,225.32,286.07Z" style="fill: rgb(64, 123, 255); transform-origin: 286.9px 286.08px;" id="elrfsppccyvi" class="animable"></path><polygon points="237.72 282.75 237.72 293.24 241.52 289.44 245.2 293.12 245.2 282.75 237.72 282.75" style="fill: rgb(38, 50, 56); transform-origin: 241.46px 287.995px;" id="elz35udg26v4a" class="animable"></polygon><rect x="270.48" y="301.97" width="162.59" height="26.17" style="fill: rgb(64, 123, 255); transform-origin: 351.775px 315.055px;" id="el5brmc3qbmd2" class="animable"></rect><g id="el72uy4dqc4bf"><rect x="270.48" y="301.97" width="162.59" height="26.17" style="fill: rgb(255, 255, 255); opacity: 0.7; transform-origin: 351.775px 315.055px;" class="animable"></rect></g><g id="ellplrsywmg4i"><polygon points="433.07 308.88 433.07 306.75 321.75 307.65 433.07 308.88" style="isolation: isolate; opacity: 0.2; transform-origin: 377.41px 307.815px;" class="animable"></polygon></g><g id="elpqzjfeit7ij"><polygon points="433.07 318.06 433.07 316.42 383.1 318.2 433.07 318.06" style="isolation: isolate; opacity: 0.2; transform-origin: 408.085px 317.31px;" class="animable"></polygon></g><g id="el8cxdw365qq"><polygon points="433.07 324.19 433.07 322.07 352.5 323.3 433.07 324.19" style="isolation: isolate; opacity: 0.2; transform-origin: 392.785px 323.13px;" class="animable"></polygon></g><g id="elaewjrgvfh9"><path d="M306.83,302l-2.36,19.51,2.78-3a24,24,0,0,0,5.12,9.63,28.76,28.76,0,0,0,4.1-7.51l75.94-.87-75.22-1.64a15.93,15.93,0,0,0,.37-3.24,15.2,15.2,0,0,0-.27-2.72l111.42-.28L317,311a21.87,21.87,0,0,0-1.64-4.25,8.7,8.7,0,0,1,5.82-2.23H433.07V302Z" style="isolation: isolate; opacity: 0.2; transform-origin: 368.77px 315.07px;" class="animable"></path></g><path d="M309.34,314.9a11.85,11.85,0,0,0,11.84,11.83H435a.87.87,0,0,1,.87.87v.94a.87.87,0,0,1-.87.87H258a14.53,14.53,0,0,1-14.52-14.64,14.75,14.75,0,0,1,14.89-14.41H435a.87.87,0,0,1,.87.87v.94a.87.87,0,0,1-.87.87H321.53A12.17,12.17,0,0,0,309.34,314.9Z" style="fill: rgb(38, 50, 56); transform-origin: 339.675px 314.885px;" id="eljst2xgslox" class="animable"></path><g id="elau2ywjf4nne"><path d="M309.34,314.9a11.85,11.85,0,0,0,11.84,11.83H435a.87.87,0,0,1,.87.87v.94a.87.87,0,0,1-.87.87H258a14.53,14.53,0,0,1-14.52-14.64,14.75,14.75,0,0,1,14.89-14.41H435a.87.87,0,0,1,.87.87v.94a.87.87,0,0,1-.87.87H321.53A12.17,12.17,0,0,0,309.34,314.9Z" style="fill: rgb(255, 255, 255); opacity: 0.2; transform-origin: 339.675px 314.885px;" class="animable"></path></g><path d="M309.34,314.9a11.85,11.85,0,0,0,11.84,11.83H435a.87.87,0,0,1,.87.87v.94a.87.87,0,0,1-.87.87H320.53A14.53,14.53,0,0,1,306,314.77a14.76,14.76,0,0,1,14.89-14.41H435a.87.87,0,0,1,.87.87v.94a.87.87,0,0,1-.87.87H321.53A12.17,12.17,0,0,0,309.34,314.9Z" style="fill: rgb(38, 50, 56); transform-origin: 370.935px 314.885px;" id="el6dvztign74h" class="animable"></path><polygon points="321.75 311.58 321.75 322.07 325.55 318.27 329.23 321.95 329.23 311.58 321.75 311.58" style="fill: rgb(64, 123, 255); transform-origin: 325.49px 316.825px;" id="elt9v9lv1j8x" class="animable"></polygon><g id="elzdr5hkjx2p"><path d="M309.34,314.9a11.85,11.85,0,0,0,11.84,11.83H435a.87.87,0,0,1,.87.87v.94a.87.87,0,0,1-.87.87H320.53A14.53,14.53,0,0,1,306,314.77a14.76,14.76,0,0,1,14.89-14.41H435a.87.87,0,0,1,.87.87v.94a.87.87,0,0,1-.87.87H321.53A12.17,12.17,0,0,0,309.34,314.9Z" style="fill: rgb(255, 255, 255); opacity: 0.4; transform-origin: 370.935px 314.885px;" class="animable"></path></g><g id="elibi7y9b00g8"><path d="M267,325.15a14.5,14.5,0,0,0,10.28,4.26h-9.65a14.53,14.53,0,0,1-14.52-14.64A14.75,14.75,0,0,1,268,300.36h9.64a14.76,14.76,0,0,0-14.89,14.41A14.47,14.47,0,0,0,267,325.15Z" style="fill: rgb(255, 255, 255); opacity: 0.2; transform-origin: 265.375px 314.885px;" class="animable"></path></g></g><g id="freepik--speech-bubble--inject-1" class="animable" style="transform-origin: 134.89px 233.235px;"><path d="M125.1,216.41h19.58a6,6,0,0,1,6,6v17a6,6,0,0,1-6,6h-.89l.93,4.65-5-4.65H125.1a6,6,0,0,1-6-6v-17A6,6,0,0,1,125.1,216.41Z" style="fill: rgb(64, 123, 255); transform-origin: 134.89px 233.235px;" id="el217liajstrq" class="animable"></path><path d="M144.61,230.89a9.72,9.72,0,1,1-9.72-9.72A9.72,9.72,0,0,1,144.61,230.89Z" style="fill: rgb(255, 255, 255); transform-origin: 134.89px 230.89px;" id="elv3tjxqszf8" class="animable"></path><path d="M133.87,235.23a.93.93,0,0,1-.68-.31l-3.82-4.5a.89.89,0,1,1,1.37-1.15l3.13,3.69,5.17-6.1a.9.9,0,0,1,1.26-.1.89.89,0,0,1,.1,1.26l-5.85,6.9A.93.93,0,0,1,133.87,235.23Z" style="fill: rgb(64, 123, 255); transform-origin: 134.888px 230.889px;" id="elvlvkpgwjvt" class="animable"></path></g><g id="freepik--Character--inject-1" class="animable" style="transform-origin: 184.441px 326.654px;"><rect x="193.93" y="330.72" width="53.44" height="79.74" rx="7.04" style="fill: rgb(64, 123, 255); transform-origin: 220.65px 370.59px;" id="elaxpkduyi3l" class="animable"></rect><g id="el2oltcyu7f1s"><rect x="193.93" y="330.72" width="53.44" height="79.74" rx="7.04" style="fill: rgb(255, 255, 255); isolation: isolate; opacity: 0.5; transform-origin: 220.65px 370.59px;" class="animable"></rect></g><g id="elefu5i7473uj"><path d="M236.41,410.46h-35.7a6.78,6.78,0,0,1-6.78-6.79V337.5a6.77,6.77,0,0,1,6.78-6.78h35.7a6.78,6.78,0,0,0-6.78,6.78v66.17A6.79,6.79,0,0,0,236.41,410.46Z" style="isolation: isolate; opacity: 0.1; transform-origin: 215.17px 370.59px;" class="animable"></path></g><g id="elxgbppri8g37"><rect x="124.97" y="408.39" width="114.19" height="7.5" style="fill: rgb(38, 50, 56); transform-origin: 182.065px 412.14px; transform: rotate(180deg);" class="animable"></rect></g><g id="elcrbd5puiu9w"><rect x="124.97" y="408.39" width="114.19" height="7.5" style="fill: rgb(255, 255, 255); isolation: isolate; opacity: 0.2; transform-origin: 182.065px 412.14px; transform: rotate(180deg);" class="animable"></rect></g><g id="el0f7mi7zgbvpj"><rect x="174.42" y="408.39" width="64.74" height="7.5" style="fill: rgb(255, 255, 255); isolation: isolate; opacity: 0.2; transform-origin: 206.79px 412.14px; transform: rotate(180deg);" class="animable"></rect></g><path d="M204.43,365.71H120.16l-12.84-66.32a11.75,11.75,0,0,1,11.54-14h60.33a11.75,11.75,0,0,1,11.54,9.52Z" style="fill: rgb(64, 123, 255); transform-origin: 155.766px 325.55px;" id="elswukwduwcu" class="animable"></path><g id="elj2kv9026bhg"><path d="M204.43,365.71H120.16l-12.84-66.32a11.75,11.75,0,0,1,11.54-14h60.33a11.75,11.75,0,0,1,11.54,9.52Z" style="fill: rgb(255, 255, 255); isolation: isolate; opacity: 0.6; transform-origin: 155.766px 325.55px;" class="animable"></path></g><g id="elbfcyin51dit"><path d="M144.1,365.71H120.16l-12.84-66.32a11.75,11.75,0,0,1,11.54-14h0a11.75,11.75,0,0,1,11.53,9.52Z" style="isolation: isolate; opacity: 0.1; transform-origin: 125.601px 325.55px;" class="animable"></path></g><rect x="116.97" y="364.9" width="131.22" height="45.56" rx="5.92" style="fill: rgb(64, 123, 255); transform-origin: 182.58px 387.68px;" id="elhst6mex89o7" class="animable"></rect><g id="ely636mlwix5n"><rect x="116.97" y="364.9" width="131.22" height="45.56" rx="5.92" style="fill: rgb(255, 255, 255); isolation: isolate; opacity: 0.6; transform-origin: 182.58px 387.68px;" class="animable"></rect></g><g id="elu5i8l3p1cd8"><rect x="116.97" y="364.9" width="62.93" height="45.56" rx="5.92" style="isolation: isolate; opacity: 0.1; transform-origin: 148.435px 387.68px;" class="animable"></rect></g><path d="M186.64,272.38c8.65,2.08,14.28,10.52,21.5,14.05.09.08-.08.2,0,.29l-3.35,2.73a4.74,4.74,0,0,0-.86,2.55c0,.51.12.64.16.57a3.64,3.64,0,0,0-.31-1.66c-1.28-3.67-3.76-7.78-5.87-11.35-1.22-2.06-2.55-4.16-3.74-6.21a4.69,4.69,0,0,1,6.68-6.24,65.5,65.5,0,0,1,6.11,4.71c5.92,5.4,13.6,12.66,13.41,21.52,0,2.92-2.06,7.45-5.37,8.66-12.06,5.87-23.47-4.64-32.11-11.07-.34-.23-.63-.4-.78-.49s-.16-.09.19,0c-11.84-3.37-7.71-20.46,4.37-18Z" style="fill: rgb(38, 50, 56); transform-origin: 197.805px 285.015px;" id="elw216u6wh18" class="animable"></path><g id="elbydb5q7uvms"><path d="M202.1,296c-1.12-.1-2.17-.25-3.21-.43s-2.26-.41-3.36-.65-2.14-.53-3.19-.81c-2.1-.56-4.13-1.25-6.13-2l-.18-.07a11.4,11.4,0,0,1,4.69-4.89S196.85,289.08,202.1,296Z" style="opacity: 0.2; transform-origin: 194.065px 291.575px;" class="animable"></path></g><polygon points="240.7 396.2 252.94 397.1 252.56 411.57 242.34 410.84 240.7 396.2" style="fill: rgb(228, 137, 123); transform-origin: 246.82px 403.885px;" id="el8w6y555b516" class="animable"></polygon><g id="elp9b8xrgvs3m"><polygon points="240.71 396.21 252.94 397.1 252.73 405.21 241.62 404.4 240.71 396.21" style="opacity: 0.2; transform-origin: 246.825px 400.71px;" class="animable"></polygon></g><path d="M240.88,415.89h2.67l.72-1.08,1.4,1.09,16.09,0a7.21,7.21,0,0,0-.69-3.68s-4.82-.43-6.67-2.83a.6.6,0,0,0-.6-.23c-1.6.34-8,1.55-11.46.3a.58.58,0,0,0-.79.52A39,39,0,0,1,240.88,415.89Z" style="fill: rgb(38, 50, 56); transform-origin: 251.331px 412.524px;" id="el1tuf5cuvr1i" class="animable"></path><path d="M173.66,333.66s-18.21,34,3.39,34c27.19,0,53.08-6.85,53.08-6.85s-1.48,14.5,9,42l14.69-.12s5.72-59.09-5.24-69c-8.82-8-40.14-5.43-40.14-5.43Z" style="fill: rgb(64, 123, 255); transform-origin: 210.898px 365.338px;" id="eltadbhlx85en" class="animable"></path><g id="elhyxfrek0kop"><path d="M233.36,380.41c-.19.72-.37,1.42-.56,2.11-3.43-14.32-2.67-21.75-2.67-21.75s-25.89,6.85-53.08,6.85c-13.14,0-11.55-12.56-8.28-22.41,9.26-5.88,19-11.21,26-14.84l13.67-2.13s5.63-.47,12.8-.39C231.84,332.58,242,345.62,233.36,380.41Z" style="opacity: 0.2; transform-origin: 201.547px 355.18px;" class="animable"></path></g><path d="M207.64,328.71c-15.8,8.73-56.14,6.3-63.34,5.08-.89-11.9-2-30.92-5.75-45a11.51,11.51,0,0,1,8.63-14.31,154.54,154.54,0,0,1,34-2.83c4,.14,8.28,2.08,9.56,5.87C196.59,295,205.93,309.17,207.64,328.71Z" style="fill: rgb(38, 50, 56); transform-origin: 172.887px 303.321px;" id="elf19hj8p4a6o" class="animable"></path><path d="M171.26,280.78c-6.63.34-12.39-5.31-15.49-7.27,3.35-2.34,5-6.54,5.62-8.87.29-1,.41-1.7.41-1.7l11.26,5a6.68,6.68,0,0,0-.34,4.51,6,6,0,0,1,3.11,3.2.42.42,0,0,0,0,.1C176.7,278.05,177.8,280.45,171.26,280.78Z" style="fill: rgb(228, 137, 123); transform-origin: 166.131px 271.867px;" id="elpd2i6oxymoc" class="animable"></path><g id="ellmk43i0jqvc"><path d="M175.87,275.76c-6.71,2.77-13.28-5.33-14.48-11.12.29-1,.41-1.7.41-1.7l11.26,5a6.68,6.68,0,0,0-.34,4.51,6,6,0,0,1,3.11,3.2A.42.42,0,0,0,175.87,275.76Z" style="opacity: 0.2; transform-origin: 168.63px 269.63px;" class="animable"></path></g><path d="M171.66,280.76l-2.5-2.23-3.86,1.93S167.42,282.62,171.66,280.76Z" style="fill: rgb(64, 123, 255); transform-origin: 168.48px 280.023px;" id="elr0p1swgwzor" class="animable"></path><g id="elo4pjemzxh3p"><path d="M171.66,280.76l-2.5-2.23-3.86,1.93S167.42,282.62,171.66,280.76Z" style="fill: rgb(255, 255, 255); opacity: 0.5; transform-origin: 168.48px 280.023px;" class="animable"></path></g><path d="M157.37,271.86s4.75,6.49,11.79,6.67a11,11,0,0,0-5.48,6.71,13.65,13.65,0,0,1-9.26-11.9A3.9,3.9,0,0,1,157.37,271.86Z" style="fill: rgb(64, 123, 255); transform-origin: 161.79px 278.55px;" id="el5gx9icrn6x" class="animable"></path><path d="M171.66,280.76,175,277.9l3.82,1.09S175.54,282.44,171.66,280.76Z" style="fill: rgb(64, 123, 255); transform-origin: 175.24px 279.561px;" id="eleizyv5uwnkc" class="animable"></path><g id="el7pbk27hvh2e"><path d="M171.66,280.76,175,277.9l3.82,1.09S175.54,282.44,171.66,280.76Z" style="fill: rgb(255, 255, 255); opacity: 0.5; transform-origin: 175.24px 279.561px;" class="animable"></path></g><path d="M172.72,272.46s2.42,3.14,2.32,5.44c3.21.87,4.31,5.7,4.31,5.7s1.31-7-3.5-10.61A5.19,5.19,0,0,0,172.72,272.46Z" style="fill: rgb(64, 123, 255); transform-origin: 176.116px 278.003px;" id="elshtmzv5oxmn" class="animable"></path><g id="elcc50y1pgav"><path d="M157.37,271.86s4.75,6.49,11.79,6.67a11,11,0,0,0-5.48,6.71,13.65,13.65,0,0,1-9.26-11.9A3.9,3.9,0,0,1,157.37,271.86Z" style="fill: rgb(255, 255, 255); opacity: 0.8; transform-origin: 161.79px 278.55px;" class="animable"></path></g><g id="elqorhln02xx"><path d="M172.72,272.46s2.42,3.14,2.32,5.44c3.21.87,4.31,5.7,4.31,5.7s1.31-7-3.5-10.61A5.19,5.19,0,0,0,172.72,272.46Z" style="fill: rgb(255, 255, 255); opacity: 0.8; transform-origin: 176.116px 278.003px;" class="animable"></path></g><polygon points="217.26 397.36 229.46 396.1 231.62 410.41 221.43 411.48 217.26 397.36" style="fill: rgb(228, 137, 123); transform-origin: 224.44px 403.79px;" id="elt9wkrnpr0vg" class="animable"></polygon><g id="elty266c30ah"><polygon points="217.26 397.37 229.47 396.1 230.68 404.12 219.6 405.27 217.26 397.37" style="opacity: 0.2; transform-origin: 223.97px 400.685px;" class="animable"></polygon></g><path d="M219.66,415.89h2.66l.73-1.08,1.4,1.09,16.09,0a7.17,7.17,0,0,0-.7-3.68s-4.81-.43-6.67-2.83a.59.59,0,0,0-.59-.23c-1.6.34-8,1.55-11.47.3a.57.57,0,0,0-.78.52A39,39,0,0,1,219.66,415.89Z" style="fill: rgb(38, 50, 56); transform-origin: 230.11px 412.524px;" id="el8m1l1msat7t" class="animable"></path><path d="M144.72,333.66s-7.61,25.1,12.86,32,40.69-5.29,40.69-5.29,0,5.29,18.24,44.14l15.11-2.85s-5.33-58.15-12-68-40.15-5.43-40.15-5.43Z" style="fill: rgb(64, 123, 255); transform-origin: 187.478px 365.876px;" id="el5soh6mmffgy" class="animable"></path><path d="M198.47,265.81l-3.36,3.92c-4.76,2.6-7.05-4.1-7.05-4.1l-3.54-4a2.74,2.74,0,0,1,.2-3.54l2.32-2.76a2.86,2.86,0,0,1,3.93-.63l3.61,3.24a5.58,5.58,0,0,1,1.62,2.22Z" style="fill: rgb(228, 137, 123); transform-origin: 191.218px 262.256px;" id="el74kfnuhbzvr" class="animable"></path><g id="elzt812mnt0h"><path d="M172.89,310.31s-9.25,18.87-28.59,23.48c-.77-10.3-1.64-26.91-4.36-39.26,3.85-2.31,14.48-4.8,14.48-4.8a34,34,0,0,0,2.88,13.42,64.07,64.07,0,0,1,16.08-4C176.2,298.79,172.89,310.31,172.89,310.31Z" style="opacity: 0.2; transform-origin: 157.229px 311.76px;" class="animable"></path></g><path d="M153.43,290.8a6.44,6.44,0,0,0,1.41-1.51c.11-.18.1-.16.08-.08s-.2.56-.32,1c-1.44,5.91-2.3,13.16-.56,19,.15.43.12.37-.27.25l2.63,2.4a5.76,5.76,0,0,0-1.54-1.42c-.84-.67-3.06-1.11-3.54-.75-.24.19.43.11,1.09-.12,5.56-2.05,11.28-6.15,16.56-9.16a4.71,4.71,0,0,1,6.3,6.61c-5.16,7.57-15.82,20.95-26.35,18.63a10.92,10.92,0,0,1-6.16-4.08l2.63,2.4c-5.09-2.85-7.56-7.51-9-12.29a50,50,0,0,1,.28-26.86c1-3.06,2.28-6.18,5.06-8.45a9.28,9.28,0,0,1,11.71,14.39Z" style="fill: rgb(38, 50, 56); transform-origin: 155.341px 300.184px;" id="ell292mmppv1" class="animable"></path><path d="M193.2,273.11l-2-2.24a33.94,33.94,0,0,0,7.78-6.09l3.6.94S199.33,272.62,193.2,273.11Z" style="fill: rgb(64, 123, 255); transform-origin: 196.89px 268.945px;" id="ele4qx29cv5j5" class="animable"></path><g id="elv3zbjjpqoce"><path d="M193.2,273.11l-2-2.24a33.94,33.94,0,0,0,7.78-6.09l3.6.94S199.33,272.62,193.2,273.11Z" style="fill: rgb(255, 255, 255); opacity: 0.5; transform-origin: 196.89px 268.945px;" class="animable"></path></g><g id="elews7lho3adw"><path d="M218.09,274.57l-2.9,8.9-10.25,18.11s-24.94,3.5-25.5-3.84c-.51-6.58,1.19-17.29,1.55-19.44l.06-.39c13.95,1.36,22.84,6.55,22.84,6.55C208.22,277.51,218.09,274.57,218.09,274.57Z" style="fill: rgb(255, 255, 255); opacity: 0.9; transform-origin: 198.718px 288.492px;" class="animable"></path></g><g id="elwdna4erwbsi"><path d="M218.09,274.57l-2.9,8.9-10.25,18.11s-24.94,3.5-25.5-3.84c-.51-6.58,1.19-17.29,1.55-19.44,10.17.93,22.91,7.1,22.91,7.1C205.29,281,218.09,274.57,218.09,274.57Z" style="opacity: 0.1; transform-origin: 198.718px 288.492px;" class="animable"></path></g><path d="M214.93,304s-4.62,2.15-12.47,8.3a4.31,4.31,0,0,1-1.52.78,4.37,4.37,0,0,1-2.27.07,149.06,149.06,0,0,0-20.44-3.42s-.88-17,.94-29.64c0,0,14,1.21,24.72,5.33h0c.31-.25,10.23-8.28,16.54-9.36C220.44,276,212.5,292.4,214.93,304Z" style="fill: rgb(64, 123, 255); transform-origin: 199.224px 294.663px;" id="el0edr4tr8fbnf" class="animable"></path><g id="elpxe41dcvz3"><path d="M214.93,304s-4.62,2.15-12.47,8.3a4.31,4.31,0,0,1-1.52.78c.46-6.9,1.75-24.79,2.95-27.66h0c.31-.25,10.23-8.28,16.54-9.36C220.44,276,212.5,292.4,214.93,304Z" style="opacity: 0.1; transform-origin: 210.685px 294.57px;" class="animable"></path></g><path d="M203,285.06a2.83,2.83,0,0,0,2-.51s-1.38,12.8-2.67,27.87a2.06,2.06,0,0,1-2.68.95S201.07,294.13,203,285.06Z" style="fill: rgb(64, 123, 255); transform-origin: 202.325px 299.05px;" id="elflv197fokjd" class="animable"></path><g id="elg359he7eci8"><path d="M203,285.06a2.83,2.83,0,0,0,2-.51s-1.38,12.8-2.67,27.87a2.06,2.06,0,0,1-2.68.95S201.07,294.13,203,285.06Z" style="fill: rgb(255, 255, 255); isolation: isolate; opacity: 0.2; transform-origin: 202.325px 299.05px;" class="animable"></path></g><g id="el7bfdw2pw6y"><path d="M207.14,288.49s4.7-4,8.64-4.89l-.61,2.45a27.1,27.1,0,0,0-8.54,5.57Z" style="fill: rgb(255, 255, 255); opacity: 0.7; transform-origin: 211.205px 287.61px;" class="animable"></path></g><g id="elfv37mbiher5"><path d="M181.61,302.42s12,2,15.3,3.13v4.85s-10-2.22-15.44-2.8Z" style="opacity: 0.1; transform-origin: 189.19px 306.41px;" class="animable"></path></g><g id="elvfd09iyilad"><path d="M209.55,284.27l-.25,1.14a31.43,31.43,0,0,1,5-2.71l.44-1.48A21.77,21.77,0,0,0,209.55,284.27Z" style="fill: rgb(255, 255, 255); opacity: 0.7; transform-origin: 212.02px 283.315px;" class="animable"></path></g><path d="M171.26,300.34l.93,4.81c2.7,4.39,7.74-.06,7.74-.06l3.28-1.16a2.6,2.6,0,0,0,1.5-3l-.62-3.37a2.7,2.7,0,0,0-2.94-2.37l-3,.53a5.52,5.52,0,0,0-2.39,1.07Z" style="fill: rgb(228, 137, 123); transform-origin: 178.021px 301.132px;" id="elizcs40sbk3" class="animable"></path><path d="M169.84,299.3l3.38-.47a22.38,22.38,0,0,0,1.58,9l-2.2,4.4S167.06,304.8,169.84,299.3Z" style="fill: rgb(64, 123, 255); transform-origin: 171.93px 305.53px;" id="eljo6aq20z75j" class="animable"></path><g id="elhs79ow6sq6"><path d="M169.84,299.3l3.38-.47a22.38,22.38,0,0,0,1.58,9l-2.2,4.4S167.06,304.8,169.84,299.3Z" style="fill: rgb(255, 255, 255); opacity: 0.5; transform-origin: 171.93px 305.53px;" class="animable"></path></g><path d="M185.66,258.16h0l-3.23-.5a.24.24,0,0,1-.21-.28.25.25,0,0,1,.29-.21l3.22.5a.24.24,0,0,1,.21.28A.25.25,0,0,1,185.66,258.16Z" style="fill: rgb(38, 50, 56); transform-origin: 184.08px 257.664px;" id="ellz2i7m7zf0j" class="animable"></path><path d="M185.94,253.63c-1,3.32-3.41,6.43-5.72,4.42a3.61,3.61,0,0,1-.85-3.6c.68-3.44,3.9-7.55,3.9-7.55s2.26-1.12,3.07,2.46A9.09,9.09,0,0,1,185.94,253.63Z" style="fill: rgb(38, 50, 56); transform-origin: 182.819px 252.71px;" id="eljp0d2dwkpam" class="animable"></path><g id="elbna5btgj2fk"><path d="M185.94,253.63c-1,3.32-3.41,6.43-5.72,4.42a3.61,3.61,0,0,1-.85-3.6,27,27,0,0,1,3.59-2.38S184.39,251.52,185.94,253.63Z" style="fill: rgb(255, 255, 255); opacity: 0.5; transform-origin: 182.571px 255.345px;" class="animable"></path></g><path d="M179,244.26c-7.12-4.61-16.21-.68-17.33,6.9s-1.71,12.75,2.25,17c7.87,8.35,14.29,5.53,17.82-1.51C184.86,260.27,186.16,248.94,179,244.26Z" style="fill: rgb(228, 137, 123); transform-origin: 172.54px 257.786px;" id="elvw9vpn5uyql" class="animable"></path><g id="elyn9h0jb9ox"><path d="M172.77,256.15a3.83,3.83,0,0,0-2.83-.61A7.46,7.46,0,0,0,172.77,256.15Z" style="opacity: 0.2; transform-origin: 171.355px 255.816px;" class="animable"></path></g><g id="elqq3vh1boq"><path d="M172.58,256.82a3.12,3.12,0,0,0-2.62.1A6.17,6.17,0,0,0,172.58,256.82Z" style="opacity: 0.2; transform-origin: 171.27px 256.797px;" class="animable"></path></g><path d="M183.28,250c-2,2.85-7.13-2-11.49-3.83a2.52,2.52,0,0,0-3.48,1.9h0a2.62,2.62,0,0,0,0,1c.75,3.15-1.83,4.75-1.49,6.55.81,4.18-2.5,4.37-6.47,1.77a3.65,3.65,0,0,1-1.41-1.32c-2.05-1.26-2.49-3.85-1.8-7a25.19,25.19,0,0,1,1.84-5.24c2.56-5.46,11.84-6.24,11.84-6.24s8.77-1.44,11.89,3.8S183.28,250,183.28,250Z" style="fill: rgb(38, 50, 56); transform-origin: 170.549px 248.255px;" id="eltyxh0woj0y" class="animable"></path><path d="M174,256.7c-.15.65.08,1.26.51,1.35s.89-.37,1-1-.09-1.26-.52-1.35S174.15,256.05,174,256.7Z" style="fill: rgb(38, 50, 56); transform-origin: 174.747px 256.875px;" id="elh2wvg7p266" class="animable"></path><path d="M181.65,258.45c-.14.65.09,1.25.52,1.34s.89-.36,1-1-.08-1.25-.51-1.34S181.8,257.79,181.65,258.45Z" style="fill: rgb(38, 50, 56); transform-origin: 182.405px 258.62px;" id="els0d41dt853j" class="animable"></path><path d="M172.14,254.38a.44.44,0,0,1-.19-.07.4.4,0,0,1-.08-.55,3.9,3.9,0,0,1,3.17-1.69.38.38,0,0,1,.37.41.39.39,0,0,1-.41.37h0a3.15,3.15,0,0,0-2.5,1.37A.38.38,0,0,1,172.14,254.38Z" style="fill: rgb(38, 50, 56); transform-origin: 173.603px 253.227px;" id="elh5n1dibl2j" class="animable"></path><path d="M185.08,256.56a.41.41,0,0,1-.26-.27,3.08,3.08,0,0,0-1.87-2.12.38.38,0,0,1-.25-.49.39.39,0,0,1,.49-.26,3.89,3.89,0,0,1,2.39,2.65.4.4,0,0,1-.27.49A.45.45,0,0,1,185.08,256.56Z" style="fill: rgb(38, 50, 56); transform-origin: 184.137px 254.989px;" id="elhv7xyrct4th" class="animable"></path><g id="elrcbudl4eved"><path d="M166.85,255.68c.81,4.18-2.5,4.37-6.47,1.77a3.65,3.65,0,0,1-1.41-1.32c-2.05-1.26-2.49-3.85-1.8-7a12.91,12.91,0,0,0,8.31-1.3,2.66,2.66,0,0,1-1.34,1.24,4.63,4.63,0,0,0,4.17-.94,2.62,2.62,0,0,0,0,1C169.09,252.28,166.51,253.88,166.85,255.68Z" style="fill: rgb(255, 255, 255); opacity: 0.5; transform-origin: 162.662px 253.496px;" class="animable"></path></g><path d="M179,257.42l-1.61,5.38a3.53,3.53,0,0,0,2.91.29A11.37,11.37,0,0,0,179,257.42Z" style="fill: rgb(222, 87, 83); transform-origin: 178.848px 260.349px;" id="el6u7p0aujwh9" class="animable"></path><path d="M176.91,266.8l-.12,0c-.14,0-3.3-1.16-4.35-3.25a.37.37,0,1,1,.66-.34c.92,1.82,3.9,2.87,3.93,2.88a.37.37,0,0,1,.23.48A.38.38,0,0,1,176.91,266.8Z" style="fill: rgb(38, 50, 56); transform-origin: 174.841px 264.904px;" id="eljqoe470ytj" class="animable"></path><path d="M166.86,257.76s-.15,4.49,1.62,6.63c0,0,2.76-3.33,5.12-3.31s3.31,2.87,3.31,2.87l-.86.44s-1.19-2.13-2.45-2.28-4.31,2.78-3.64,4.32,3.64,0,3.64,0l1.18.66s-1.77,2.93,1.67,2.66,3.74-4.46.46-4.88l.48-.94s3.37.13,4,3.28-1,8-8.85,7.15c-4.15-.45-11.72-5.09-8.18-15.49Z" style="fill: rgb(38, 50, 56); transform-origin: 172.478px 266.109px;" id="el5ynf2tokefu" class="animable"></path><path d="M180.3,257a.25.25,0,0,1-.16-.06,2,2,0,0,0-1.78-.43.24.24,0,0,1-.31-.17.25.25,0,0,1,.16-.31,2.55,2.55,0,0,1,2.25.53.24.24,0,0,1,0,.35A.25.25,0,0,1,180.3,257Z" style="fill: rgb(38, 50, 56); transform-origin: 179.287px 256.479px;" id="elyy1bdqkg5hj" class="animable"></path><path d="M170.83,254.62h-.05L163,252.94a1.52,1.52,0,0,0-1.84,1.13l0,.15a.25.25,0,1,1-.49-.12l0-.15a2,2,0,0,1,2.44-1.5l7.77,1.67a.25.25,0,0,1,.19.3A.26.26,0,0,1,170.83,254.62Z" style="fill: rgb(38, 50, 56); transform-origin: 165.869px 253.505px;" id="el5uj0bxautbd" class="animable"></path><path d="M183.21,261.82a1.27,1.27,0,0,1-.28,0l-1.2-.29a2.34,2.34,0,0,1-1.51-2.48l0-2.34a.26.26,0,0,1,.15-.23,4.68,4.68,0,0,1,2.91-.1,4.13,4.13,0,0,1,2.56,1.43.27.27,0,0,1,0,.23l-1.11,2.56A1.85,1.85,0,0,1,183.21,261.82Zm-2.46-5,0,2.18c0,1,.44,1.82,1.13,2l1.19.29c.46.11,1-.28,1.28-.93l1.05-2.42a4.24,4.24,0,0,0-2.18-1.11A4.62,4.62,0,0,0,180.75,256.85Z" style="fill: rgb(38, 50, 56); transform-origin: 183.034px 259.011px;" id="elmiggygd6yj" class="animable"></path><path d="M174.6,259.71a3.25,3.25,0,0,1-.69-.08l-1.69-.41a2.09,2.09,0,0,1-1.61-2l0-2.83a.25.25,0,0,1,.16-.24s1.28-.48,4,.17a8.32,8.32,0,0,1,3.59,1.63.24.24,0,0,1,0,.31l-1.24,2.06A2.92,2.92,0,0,1,174.6,259.71Zm-3.52-5.15,0,2.63a1.59,1.59,0,0,0,1.23,1.55l1.69.4a2.41,2.41,0,0,0,2.64-1.1l1.13-1.87a8.84,8.84,0,0,0-3.21-1.39A8,8,0,0,0,171.08,254.56Z" style="fill: rgb(38, 50, 56); transform-origin: 174.513px 256.845px;" id="el5kx7op39jur" class="animable"></path><path d="M157.51,256.77a6.78,6.78,0,0,0,3.24,4.07c2.1,1.14,3.7-.61,3.58-2.87-.12-2-1.35-5.08-3.68-5.29A3.09,3.09,0,0,0,157.51,256.77Z" style="fill: rgb(228, 137, 123); transform-origin: 160.839px 256.935px;" id="eltoo9cg268j" class="animable"></path><rect x="107.1" y="330.72" width="53.44" height="79.74" rx="7.04" style="fill: rgb(64, 123, 255); transform-origin: 133.82px 370.59px;" id="elorx4zytl8p" class="animable"></rect><g id="eltuhoyh6jlp"><rect x="107.1" y="330.72" width="53.44" height="79.74" rx="7.04" style="fill: rgb(255, 255, 255); isolation: isolate; opacity: 0.6; transform-origin: 133.82px 370.59px;" class="animable"></rect></g><g id="el2qtpck6alow"><path d="M149.58,410.46H113.89a6.79,6.79,0,0,1-6.79-6.79V337.5a6.78,6.78,0,0,1,6.79-6.78h35.69a6.78,6.78,0,0,0-6.78,6.78v66.17A6.79,6.79,0,0,0,149.58,410.46Z" style="isolation: isolate; opacity: 0.2; transform-origin: 128.34px 370.59px;" class="animable"></path></g></g><defs>     <filter id="active" height="200%">         <feMorphology in="SourceAlpha" result="DILATED" operator="dilate" radius="2"></feMorphology>                <feFlood flood-color="#32DFEC" flood-opacity="1" result="PINK"></feFlood>        <feComposite in="PINK" in2="DILATED" operator="in" result="OUTLINE"></feComposite>        <feMerge>            <feMergeNode in="OUTLINE"></feMergeNode>            <feMergeNode in="SourceGraphic"></feMergeNode>        </feMerge>    </filter>    <filter id="hover" height="200%">        <feMorphology in="SourceAlpha" result="DILATED" operator="dilate" radius="2"></feMorphology>                <feFlood flood-color="#ff0000" flood-opacity="0.5" result="PINK"></feFlood>        <feComposite in="PINK" in2="DILATED" operator="in" result="OUTLINE"></feComposite>        <feMerge>            <feMergeNode in="OUTLINE"></feMergeNode>            <feMergeNode in="SourceGraphic"></feMergeNode>        </feMerge>            <feColorMatrix type="matrix" values="0   0   0   0   0                0   1   0   0   0                0   0   0   0   0                0   0   0   1   0 "></feColorMatrix>    </filter></defs></svg>