<svg xmlns="http://www.w3.org/2000/svg" viewBox="0 0 1440 320"><path fill="#13293d" fill-opacity="1" d="M0,128L34.3,154.7C68.6,181,137,235,206,240C274.3,245,343,203,411,165.3C480,128,549,96,617,96C685.7,96,754,128,823,149.3C891.4,171,960,181,1029,181.3C1097.1,181,1166,171,1234,149.3C1302.9,128,1371,96,1406,80L1440,64L1440,320L1405.7,320C1371.4,320,1303,320,1234,320C1165.7,320,1097,320,1029,320C960,320,891,320,823,320C754.3,320,686,320,617,320C548.6,320,480,320,411,320C342.9,320,274,320,206,320C137.1,320,69,320,34,320L0,320Z"></path></svg>